%TF.GenerationSoftware,KiCad,Pcbnew,8.0.4*%
%TF.CreationDate,2024-08-07T16:27:42-04:00*%
%TF.ProjectId,C128VGA,43313238-5647-4412-9e6b-696361645f70,1.0*%
%TF.SameCoordinates,Original*%
%TF.FileFunction,Copper,L2,Bot*%
%TF.FilePolarity,Positive*%
%FSLAX46Y46*%
G04 Gerber Fmt 4.6, Leading zero omitted, Abs format (unit mm)*
G04 Created by KiCad (PCBNEW 8.0.4) date 2024-08-07 16:27:42*
%MOMM*%
%LPD*%
G01*
G04 APERTURE LIST*
%TA.AperFunction,ComponentPad*%
%ADD10O,3.300000X1.550000*%
%TD*%
%TA.AperFunction,ComponentPad*%
%ADD11O,2.100000X4.200000*%
%TD*%
%TA.AperFunction,ComponentPad*%
%ADD12C,1.400000*%
%TD*%
%TA.AperFunction,ComponentPad*%
%ADD13O,1.400000X1.400000*%
%TD*%
%TA.AperFunction,ComponentPad*%
%ADD14C,4.000000*%
%TD*%
%TA.AperFunction,ComponentPad*%
%ADD15R,1.600000X1.600000*%
%TD*%
%TA.AperFunction,ComponentPad*%
%ADD16C,1.600000*%
%TD*%
%TA.AperFunction,ComponentPad*%
%ADD17O,1.600000X1.600000*%
%TD*%
%TA.AperFunction,Conductor*%
%ADD18C,1.000000*%
%TD*%
%TA.AperFunction,Conductor*%
%ADD19C,0.200000*%
%TD*%
G04 APERTURE END LIST*
D10*
%TO.P,J2,1,In*%
%TO.N,MONO*%
X249817900Y-84302600D03*
X249817900Y-91465400D03*
X249817999Y-87858600D03*
D11*
%TO.P,J2,2,Ext*%
%TO.N,GND*%
X254318000Y-87858600D03*
%TD*%
D12*
%TO.P,R1,1*%
%TO.N,RED*%
X244221000Y-84201000D03*
D13*
%TO.P,R1,2*%
%TO.N,R*%
X244221000Y-91821000D03*
%TD*%
D14*
%TO.P,J9,0*%
%TO.N,N/C*%
X255397000Y-78816200D03*
X230397000Y-78816200D03*
D15*
%TO.P,J9,1,1*%
%TO.N,GND*%
X248437000Y-79116200D03*
D16*
%TO.P,J9,2,2*%
X245667000Y-79116200D03*
%TO.P,J9,3,3*%
%TO.N,RED*%
X242897000Y-79116200D03*
%TO.P,J9,4,4*%
%TO.N,GREEN*%
X240127000Y-79116200D03*
%TO.P,J9,5,5*%
%TO.N,BLUE*%
X237357000Y-79116200D03*
%TO.P,J9,6,6*%
%TO.N,INT*%
X247052000Y-76276200D03*
%TO.P,J9,7,7*%
%TO.N,MONO*%
X244282000Y-76276200D03*
%TO.P,J9,8,8*%
%TO.N,H*%
X241512000Y-76276200D03*
%TO.P,J9,9,9*%
%TO.N,V*%
X238742000Y-76276200D03*
%TD*%
D15*
%TO.P,D3,1,K*%
%TO.N,R*%
X236220000Y-84074000D03*
D17*
%TO.P,D3,2,A*%
%TO.N,Net-(D1-A)*%
X228600000Y-84074000D03*
%TD*%
D12*
%TO.P,R2,1*%
%TO.N,GREEN*%
X241808000Y-84201000D03*
D13*
%TO.P,R2,2*%
%TO.N,G*%
X241808000Y-91821000D03*
%TD*%
D12*
%TO.P,R3,1*%
%TO.N,BLUE*%
X239395000Y-84201000D03*
D13*
%TO.P,R3,2*%
%TO.N,B*%
X239395000Y-91821000D03*
%TD*%
D12*
%TO.P,R4,1*%
%TO.N,INT*%
X246634000Y-84201000D03*
D13*
%TO.P,R4,2*%
%TO.N,Net-(D1-A)*%
X246634000Y-91821000D03*
%TD*%
D14*
%TO.P,J17,0*%
%TO.N,N/C*%
X230397000Y-97554000D03*
X255397000Y-97554000D03*
D15*
%TO.P,J17,1*%
%TO.N,R*%
X247212000Y-95504000D03*
D16*
%TO.P,J17,2*%
%TO.N,G*%
X244922000Y-95504000D03*
%TO.P,J17,3*%
%TO.N,B*%
X242632000Y-95504000D03*
%TO.P,J17,4*%
%TO.N,unconnected-(J17-Pad4)*%
X240342000Y-95504000D03*
%TO.P,J17,5*%
%TO.N,GND*%
X238052000Y-95504000D03*
%TO.P,J17,6*%
X248357000Y-97484000D03*
%TO.P,J17,7*%
X246067000Y-97484000D03*
%TO.P,J17,8*%
X243777000Y-97484000D03*
%TO.P,J17,9*%
X241487000Y-97484000D03*
%TO.P,J17,10*%
X239197000Y-97484000D03*
%TO.P,J17,11*%
%TO.N,unconnected-(J17-Pad11)*%
X247212000Y-99464000D03*
%TO.P,J17,12*%
%TO.N,unconnected-(J17-Pad12)*%
X244922000Y-99464000D03*
%TO.P,J17,13*%
%TO.N,H*%
X242632000Y-99464000D03*
%TO.P,J17,14*%
%TO.N,V*%
X240342000Y-99464000D03*
%TO.P,J17,15*%
%TO.N,unconnected-(J17-Pad15)*%
X238052000Y-99464000D03*
%TD*%
D15*
%TO.P,D2,1,K*%
%TO.N,G*%
X236220000Y-87757000D03*
D17*
%TO.P,D2,2,A*%
%TO.N,Net-(D1-A)*%
X228600000Y-87757000D03*
%TD*%
D15*
%TO.P,D1,1,K*%
%TO.N,B*%
X236220000Y-91821000D03*
D17*
%TO.P,D1,2,A*%
%TO.N,Net-(D1-A)*%
X228600000Y-91821000D03*
%TD*%
D18*
%TO.N,GND*%
X254318000Y-92950800D02*
X249784800Y-97484000D01*
X254318000Y-87858600D02*
X254318000Y-92950800D01*
X249784800Y-97484000D02*
X248357000Y-97484000D01*
X254318000Y-83782400D02*
X254318000Y-87858600D01*
X249651800Y-79116200D02*
X254318000Y-83782400D01*
X248437000Y-79116200D02*
X249651800Y-79116200D01*
D19*
%TO.N,Net-(D1-A)*%
X232283000Y-89789000D02*
X230251000Y-87757000D01*
X230251000Y-87757000D02*
X228600000Y-87757000D01*
X244602000Y-89789000D02*
X232283000Y-89789000D01*
X246634000Y-91821000D02*
X244602000Y-89789000D01*
D18*
%TO.N,GND*%
X238052000Y-96828000D02*
X238052000Y-95504000D01*
X246067000Y-97484000D02*
X243777000Y-97484000D01*
X248357000Y-97484000D02*
X246067000Y-97484000D01*
X239197000Y-97484000D02*
X238708000Y-97484000D01*
X248437000Y-79116200D02*
X245667000Y-79116200D01*
X238708000Y-97484000D02*
X238052000Y-96828000D01*
%TO.N,MONO*%
X249817999Y-91465301D02*
X249817900Y-91465400D01*
%TO.N,GND*%
X241487000Y-97484000D02*
X239197000Y-97484000D01*
%TO.N,MONO*%
X249817900Y-87858501D02*
X249817999Y-87858600D01*
%TO.N,GND*%
X243777000Y-97484000D02*
X241487000Y-97484000D01*
%TD*%
M02*
