M48
; DRILL file {KiCad 8.0.4} date 2024-08-07T16:27:46-0400
; FORMAT={-:-/ absolute / inch / decimal}
; #@! TF.CreationDate,2024-08-07T16:27:46-04:00
; #@! TF.GenerationSoftware,Kicad,Pcbnew,8.0.4
; #@! TF.FileFunction,Plated,1,2,PTH
FMAT,2
INCH
; #@! TA.AperFunction,Plated,PTH,ComponentDrill
T1C0.0276
; #@! TA.AperFunction,Plated,PTH,ComponentDrill
T2C0.0315
; #@! TA.AperFunction,Plated,PTH,ComponentDrill
T3C0.0394
; #@! TA.AperFunction,Plated,PTH,ComponentDrill
T4C0.0512
; #@! TA.AperFunction,Plated,PTH,ComponentDrill
T5C0.1260
%
G90
G05
T1
X9.425Y-3.315
X9.425Y-3.615
X9.52Y-3.315
X9.52Y-3.615
X9.615Y-3.315
X9.615Y-3.615
X9.71Y-3.315
X9.71Y-3.615
T2
X9.0Y-3.31
X9.0Y-3.455
X9.0Y-3.615
X9.3Y-3.31
X9.3Y-3.455
X9.3Y-3.615
T3
X9.3448Y-3.1148
X9.3721Y-3.76
X9.3721Y-3.9159
X9.3993Y-3.003
X9.4172Y-3.838
X9.4538Y-3.1148
X9.4623Y-3.76
X9.4623Y-3.9159
X9.5074Y-3.838
X9.5083Y-3.003
X9.5524Y-3.76
X9.5524Y-3.9159
X9.5629Y-3.1148
X9.5975Y-3.838
X9.6174Y-3.003
X9.6426Y-3.76
X9.6426Y-3.9159
X9.6719Y-3.1148
X9.6877Y-3.838
X9.7265Y-3.003
X9.7328Y-3.76
X9.7328Y-3.9159
X9.7778Y-3.838
X9.781Y-3.1148
T5
X9.0707Y-3.103
X9.0707Y-3.8407
X10.055Y-3.103
X10.055Y-3.8407
T3
G00X9.8098Y-3.319
M15
G01X9.8609Y-3.319
M16
G05
G00X9.8098Y-3.601
M15
G01X9.8609Y-3.601
M16
G05
G00X9.8098Y-3.459
M15
G01X9.8609Y-3.459
M16
G05
T4
G00X10.0125Y-3.4177
M15
G01X10.0125Y-3.5003
M16
G05
M30
