%TF.GenerationSoftware,KiCad,Pcbnew,8.0.4*%
%TF.CreationDate,2024-08-07T16:27:48-04:00*%
%TF.ProjectId,C128VGA,43313238-5647-4412-9e6b-696361645f70,1.0*%
%TF.SameCoordinates,Original*%
%TF.FileFunction,Drillmap*%
%TF.FilePolarity,Positive*%
%FSLAX45Y45*%
G04 Gerber Fmt 4.5, Leading zero omitted, Abs format (unit mm)*
G04 Created by KiCad (PCBNEW 8.0.4) date 2024-08-07 16:27:48*
%MOMM*%
%LPD*%
G01*
G04 APERTURE LIST*
%ADD10C,0.050000*%
%ADD11C,0.010000*%
%ADD12C,0.200000*%
G04 APERTURE END LIST*
D10*
X22699360Y-7136810D02*
X25887060Y-7136810D01*
X25887060Y-10250850D01*
X22699360Y-10250850D01*
X22699360Y-7136810D01*
D11*
X25661800Y-8270860D02*
X25661800Y-8450860D01*
X25661800Y-8450860D02*
X25831800Y-8450860D01*
X25661800Y-9120860D02*
X25661800Y-9300860D01*
X25661800Y-9300860D02*
X25831800Y-9300860D01*
X25831800Y-8270860D02*
X25661800Y-8270860D01*
X25831800Y-8450860D02*
X25831800Y-8270860D01*
X25831800Y-9120860D02*
X25661800Y-9120860D01*
X25831800Y-9300860D02*
X25831800Y-9120860D01*
D12*
X22957637Y-10564834D02*
X22957637Y-10364834D01*
X22957637Y-10364834D02*
X23005256Y-10364834D01*
X23005256Y-10364834D02*
X23033827Y-10374358D01*
X23033827Y-10374358D02*
X23052875Y-10393405D01*
X23052875Y-10393405D02*
X23062399Y-10412453D01*
X23062399Y-10412453D02*
X23071922Y-10450548D01*
X23071922Y-10450548D02*
X23071922Y-10479120D01*
X23071922Y-10479120D02*
X23062399Y-10517215D01*
X23062399Y-10517215D02*
X23052875Y-10536262D01*
X23052875Y-10536262D02*
X23033827Y-10555310D01*
X23033827Y-10555310D02*
X23005256Y-10564834D01*
X23005256Y-10564834D02*
X22957637Y-10564834D01*
X23157637Y-10564834D02*
X23157637Y-10431500D01*
X23157637Y-10469596D02*
X23167161Y-10450548D01*
X23167161Y-10450548D02*
X23176684Y-10441024D01*
X23176684Y-10441024D02*
X23195732Y-10431500D01*
X23195732Y-10431500D02*
X23214780Y-10431500D01*
X23281446Y-10564834D02*
X23281446Y-10431500D01*
X23281446Y-10364834D02*
X23271922Y-10374358D01*
X23271922Y-10374358D02*
X23281446Y-10383881D01*
X23281446Y-10383881D02*
X23290970Y-10374358D01*
X23290970Y-10374358D02*
X23281446Y-10364834D01*
X23281446Y-10364834D02*
X23281446Y-10383881D01*
X23405256Y-10564834D02*
X23386208Y-10555310D01*
X23386208Y-10555310D02*
X23376684Y-10536262D01*
X23376684Y-10536262D02*
X23376684Y-10364834D01*
X23510018Y-10564834D02*
X23490970Y-10555310D01*
X23490970Y-10555310D02*
X23481446Y-10536262D01*
X23481446Y-10536262D02*
X23481446Y-10364834D01*
X23738589Y-10564834D02*
X23738589Y-10364834D01*
X23738589Y-10364834D02*
X23805256Y-10507691D01*
X23805256Y-10507691D02*
X23871922Y-10364834D01*
X23871922Y-10364834D02*
X23871922Y-10564834D01*
X24052875Y-10564834D02*
X24052875Y-10460072D01*
X24052875Y-10460072D02*
X24043351Y-10441024D01*
X24043351Y-10441024D02*
X24024303Y-10431500D01*
X24024303Y-10431500D02*
X23986208Y-10431500D01*
X23986208Y-10431500D02*
X23967161Y-10441024D01*
X24052875Y-10555310D02*
X24033827Y-10564834D01*
X24033827Y-10564834D02*
X23986208Y-10564834D01*
X23986208Y-10564834D02*
X23967161Y-10555310D01*
X23967161Y-10555310D02*
X23957637Y-10536262D01*
X23957637Y-10536262D02*
X23957637Y-10517215D01*
X23957637Y-10517215D02*
X23967161Y-10498167D01*
X23967161Y-10498167D02*
X23986208Y-10488643D01*
X23986208Y-10488643D02*
X24033827Y-10488643D01*
X24033827Y-10488643D02*
X24052875Y-10479120D01*
X24148113Y-10431500D02*
X24148113Y-10631500D01*
X24148113Y-10441024D02*
X24167161Y-10431500D01*
X24167161Y-10431500D02*
X24205256Y-10431500D01*
X24205256Y-10431500D02*
X24224303Y-10441024D01*
X24224303Y-10441024D02*
X24233827Y-10450548D01*
X24233827Y-10450548D02*
X24243351Y-10469596D01*
X24243351Y-10469596D02*
X24243351Y-10526739D01*
X24243351Y-10526739D02*
X24233827Y-10545786D01*
X24233827Y-10545786D02*
X24224303Y-10555310D01*
X24224303Y-10555310D02*
X24205256Y-10564834D01*
X24205256Y-10564834D02*
X24167161Y-10564834D01*
X24167161Y-10564834D02*
X24148113Y-10555310D01*
X24329065Y-10545786D02*
X24338589Y-10555310D01*
X24338589Y-10555310D02*
X24329065Y-10564834D01*
X24329065Y-10564834D02*
X24319542Y-10555310D01*
X24319542Y-10555310D02*
X24329065Y-10545786D01*
X24329065Y-10545786D02*
X24329065Y-10564834D01*
X24329065Y-10441024D02*
X24338589Y-10450548D01*
X24338589Y-10450548D02*
X24329065Y-10460072D01*
X24329065Y-10460072D02*
X24319542Y-10450548D01*
X24319542Y-10450548D02*
X24329065Y-10441024D01*
X24329065Y-10441024D02*
X24329065Y-10460072D01*
M02*
