%TF.GenerationSoftware,KiCad,Pcbnew,8.0.4*%
%TF.CreationDate,2024-08-07T16:27:48-04:00*%
%TF.ProjectId,C128VGA,43313238-5647-4412-9e6b-696361645f70,1.0*%
%TF.SameCoordinates,Original*%
%TF.FileFunction,Drillmap*%
%TF.FilePolarity,Positive*%
%FSLAX45Y45*%
G04 Gerber Fmt 4.5, Leading zero omitted, Abs format (unit mm)*
G04 Created by KiCad (PCBNEW 8.0.4) date 2024-08-07 16:27:48*
%MOMM*%
%LPD*%
G01*
G04 APERTURE LIST*
%ADD10C,0.050000*%
%ADD11C,0.010000*%
%ADD12C,0.200000*%
%ADD13C,0.100000*%
%ADD14C,0.130000*%
%ADD15C,0.320000*%
G04 APERTURE END LIST*
D10*
X22699360Y-7136810D02*
X25887060Y-7136810D01*
X25887060Y-10250850D01*
X22699360Y-10250850D01*
X22699360Y-7136810D01*
D11*
X25661800Y-8270860D02*
X25661800Y-8450860D01*
X25661800Y-8450860D02*
X25831800Y-8450860D01*
X25661800Y-9120860D02*
X25661800Y-9300860D01*
X25661800Y-9300860D02*
X25831800Y-9300860D01*
X25831800Y-8270860D02*
X25661800Y-8270860D01*
X25831800Y-8450860D02*
X25831800Y-8270860D01*
X25831800Y-9120860D02*
X25661800Y-9120860D01*
X25831800Y-9300860D02*
X25831800Y-9120860D01*
D12*
D13*
X23904500Y-8385100D02*
X23974500Y-8455100D01*
X23974500Y-8385100D02*
X23904500Y-8455100D01*
X23904500Y-9147100D02*
X23974500Y-9217100D01*
X23974500Y-9147100D02*
X23904500Y-9217100D01*
X24145800Y-8385100D02*
X24215800Y-8455100D01*
X24215800Y-8385100D02*
X24145800Y-8455100D01*
X24145800Y-9147100D02*
X24215800Y-9217100D01*
X24215800Y-9147100D02*
X24145800Y-9217100D01*
X24387100Y-8385100D02*
X24457100Y-8455100D01*
X24457100Y-8385100D02*
X24387100Y-8455100D01*
X24387100Y-9147100D02*
X24457100Y-9217100D01*
X24457100Y-9147100D02*
X24387100Y-9217100D01*
X24628400Y-8385100D02*
X24698400Y-8455100D01*
X24698400Y-8385100D02*
X24628400Y-8455100D01*
X24628400Y-9147100D02*
X24698400Y-9217100D01*
X24698400Y-9147100D02*
X24628400Y-9217100D01*
X22900000Y-8407400D02*
G75*
G02*
X22820000Y-8407400I-40000J0D01*
G01*
X22820000Y-8407400D02*
G75*
G02*
X22900000Y-8407400I40000J0D01*
G01*
X22900000Y-8775700D02*
G75*
G02*
X22820000Y-8775700I-40000J0D01*
G01*
X22820000Y-8775700D02*
G75*
G02*
X22900000Y-8775700I40000J0D01*
G01*
X22900000Y-9182100D02*
G75*
G02*
X22820000Y-9182100I-40000J0D01*
G01*
X22820000Y-9182100D02*
G75*
G02*
X22900000Y-9182100I40000J0D01*
G01*
X23662000Y-8407400D02*
G75*
G02*
X23582000Y-8407400I-40000J0D01*
G01*
X23582000Y-8407400D02*
G75*
G02*
X23662000Y-8407400I40000J0D01*
G01*
X23662000Y-8775700D02*
G75*
G02*
X23582000Y-8775700I-40000J0D01*
G01*
X23582000Y-8775700D02*
G75*
G02*
X23662000Y-8775700I40000J0D01*
G01*
X23662000Y-9182100D02*
G75*
G02*
X23582000Y-9182100I-40000J0D01*
G01*
X23582000Y-9182100D02*
G75*
G02*
X23662000Y-9182100I40000J0D01*
G01*
X23735700Y-7861620D02*
X23735700Y-7961620D01*
X23685700Y-7911620D02*
X23785700Y-7911620D01*
X23805200Y-9500400D02*
X23805200Y-9600400D01*
X23755200Y-9550400D02*
X23855200Y-9550400D01*
X23805200Y-9896400D02*
X23805200Y-9996400D01*
X23755200Y-9946400D02*
X23855200Y-9946400D01*
X23874200Y-7577620D02*
X23874200Y-7677620D01*
X23824200Y-7627620D02*
X23924200Y-7627620D01*
X23919700Y-9698400D02*
X23919700Y-9798400D01*
X23869700Y-9748400D02*
X23969700Y-9748400D01*
X24012700Y-7861620D02*
X24012700Y-7961620D01*
X23962700Y-7911620D02*
X24062700Y-7911620D01*
X24034200Y-9500400D02*
X24034200Y-9600400D01*
X23984200Y-9550400D02*
X24084200Y-9550400D01*
X24034200Y-9896400D02*
X24034200Y-9996400D01*
X23984200Y-9946400D02*
X24084200Y-9946400D01*
X24148700Y-9698400D02*
X24148700Y-9798400D01*
X24098700Y-9748400D02*
X24198700Y-9748400D01*
X24151200Y-7577620D02*
X24151200Y-7677620D01*
X24101200Y-7627620D02*
X24201200Y-7627620D01*
X24263200Y-9500400D02*
X24263200Y-9600400D01*
X24213200Y-9550400D02*
X24313200Y-9550400D01*
X24263200Y-9896400D02*
X24263200Y-9996400D01*
X24213200Y-9946400D02*
X24313200Y-9946400D01*
X24289700Y-7861620D02*
X24289700Y-7961620D01*
X24239700Y-7911620D02*
X24339700Y-7911620D01*
X24377700Y-9698400D02*
X24377700Y-9798400D01*
X24327700Y-9748400D02*
X24427700Y-9748400D01*
X24428200Y-7577620D02*
X24428200Y-7677620D01*
X24378200Y-7627620D02*
X24478200Y-7627620D01*
X24492200Y-9500400D02*
X24492200Y-9600400D01*
X24442200Y-9550400D02*
X24542200Y-9550400D01*
X24492200Y-9896400D02*
X24492200Y-9996400D01*
X24442200Y-9946400D02*
X24542200Y-9946400D01*
X24566700Y-7861620D02*
X24566700Y-7961620D01*
X24516700Y-7911620D02*
X24616700Y-7911620D01*
X24606700Y-9698400D02*
X24606700Y-9798400D01*
X24556700Y-9748400D02*
X24656700Y-9748400D01*
X24705200Y-7577620D02*
X24705200Y-7677620D01*
X24655200Y-7627620D02*
X24755200Y-7627620D01*
X24721200Y-9500400D02*
X24721200Y-9600400D01*
X24671200Y-9550400D02*
X24771200Y-9550400D01*
X24721200Y-9896400D02*
X24721200Y-9996400D01*
X24671200Y-9946400D02*
X24771200Y-9946400D01*
X24835700Y-9698400D02*
X24835700Y-9798400D01*
X24785700Y-9748400D02*
X24885700Y-9748400D01*
X24843700Y-7861620D02*
X24843700Y-7961620D01*
X24793700Y-7911620D02*
X24893700Y-7911620D01*
X24981790Y-8380260D02*
X24981790Y-8480260D01*
X24931790Y-8430260D02*
X25031790Y-8430260D01*
X24916790Y-8480260D02*
X25046790Y-8480260D01*
X25046790Y-8380260D02*
G75*
G02*
X25046790Y-8480260I0J-50000D01*
G01*
X25046790Y-8380260D02*
X24916790Y-8380260D01*
X24916790Y-8380260D02*
G75*
G03*
X24916790Y-8480260I0J-50000D01*
G01*
X24981790Y-9096540D02*
X24981790Y-9196540D01*
X24931790Y-9146540D02*
X25031790Y-9146540D01*
X24916790Y-9196540D02*
X25046790Y-9196540D01*
X25046790Y-9096540D02*
G75*
G02*
X25046790Y-9196540I0J-50000D01*
G01*
X25046790Y-9096540D02*
X24916790Y-9096540D01*
X24916790Y-9096540D02*
G75*
G03*
X24916790Y-9196540I0J-50000D01*
G01*
X24981800Y-8735860D02*
X24981800Y-8835860D01*
X24931800Y-8785860D02*
X25031800Y-8785860D01*
X24916800Y-8835860D02*
X25046800Y-8835860D01*
X25046800Y-8735860D02*
G75*
G02*
X25046800Y-8835860I0J-50000D01*
G01*
X25046800Y-8735860D02*
X24916800Y-8735860D01*
X24916800Y-8735860D02*
G75*
G03*
X24916800Y-8835860I0J-50000D01*
G01*
D14*
X25477762Y-8831822D02*
X25477762Y-8739898D01*
X25385838Y-8739898D01*
X25385838Y-8831822D01*
X25477762Y-8831822D01*
D13*
X25366800Y-8680860D02*
X25366800Y-8890860D01*
X25496800Y-8890860D02*
G75*
G02*
X25366800Y-8890860I-65000J0D01*
G01*
X25496800Y-8890860D02*
X25496800Y-8680860D01*
X25496800Y-8680860D02*
G75*
G03*
X25366800Y-8680860I-65000J0D01*
G01*
D15*
X23039700Y-8041620D02*
X23199700Y-7881620D01*
X23039700Y-7721620D01*
X22879700Y-7881620D01*
X23039700Y-8041620D01*
X23039700Y-9915400D02*
X23199700Y-9755400D01*
X23039700Y-9595400D01*
X22879700Y-9755400D01*
X23039700Y-9915400D01*
X25539700Y-8041620D02*
X25699700Y-7881620D01*
X25539700Y-7721620D01*
X25379700Y-7881620D01*
X25539700Y-8041620D01*
X25539700Y-9915400D02*
X25699700Y-9755400D01*
X25539700Y-9595400D01*
X25379700Y-9755400D01*
X25539700Y-9915400D01*
D12*
X22957637Y-10564834D02*
X22957637Y-10364834D01*
X22957637Y-10364834D02*
X23005256Y-10364834D01*
X23005256Y-10364834D02*
X23033827Y-10374358D01*
X23033827Y-10374358D02*
X23052875Y-10393405D01*
X23052875Y-10393405D02*
X23062399Y-10412453D01*
X23062399Y-10412453D02*
X23071922Y-10450548D01*
X23071922Y-10450548D02*
X23071922Y-10479120D01*
X23071922Y-10479120D02*
X23062399Y-10517215D01*
X23062399Y-10517215D02*
X23052875Y-10536262D01*
X23052875Y-10536262D02*
X23033827Y-10555310D01*
X23033827Y-10555310D02*
X23005256Y-10564834D01*
X23005256Y-10564834D02*
X22957637Y-10564834D01*
X23157637Y-10564834D02*
X23157637Y-10431500D01*
X23157637Y-10469596D02*
X23167161Y-10450548D01*
X23167161Y-10450548D02*
X23176684Y-10441024D01*
X23176684Y-10441024D02*
X23195732Y-10431500D01*
X23195732Y-10431500D02*
X23214780Y-10431500D01*
X23281446Y-10564834D02*
X23281446Y-10431500D01*
X23281446Y-10364834D02*
X23271922Y-10374358D01*
X23271922Y-10374358D02*
X23281446Y-10383881D01*
X23281446Y-10383881D02*
X23290970Y-10374358D01*
X23290970Y-10374358D02*
X23281446Y-10364834D01*
X23281446Y-10364834D02*
X23281446Y-10383881D01*
X23405256Y-10564834D02*
X23386208Y-10555310D01*
X23386208Y-10555310D02*
X23376684Y-10536262D01*
X23376684Y-10536262D02*
X23376684Y-10364834D01*
X23510018Y-10564834D02*
X23490970Y-10555310D01*
X23490970Y-10555310D02*
X23481446Y-10536262D01*
X23481446Y-10536262D02*
X23481446Y-10364834D01*
X23738589Y-10564834D02*
X23738589Y-10364834D01*
X23738589Y-10364834D02*
X23805256Y-10507691D01*
X23805256Y-10507691D02*
X23871922Y-10364834D01*
X23871922Y-10364834D02*
X23871922Y-10564834D01*
X24052875Y-10564834D02*
X24052875Y-10460072D01*
X24052875Y-10460072D02*
X24043351Y-10441024D01*
X24043351Y-10441024D02*
X24024303Y-10431500D01*
X24024303Y-10431500D02*
X23986208Y-10431500D01*
X23986208Y-10431500D02*
X23967161Y-10441024D01*
X24052875Y-10555310D02*
X24033827Y-10564834D01*
X24033827Y-10564834D02*
X23986208Y-10564834D01*
X23986208Y-10564834D02*
X23967161Y-10555310D01*
X23967161Y-10555310D02*
X23957637Y-10536262D01*
X23957637Y-10536262D02*
X23957637Y-10517215D01*
X23957637Y-10517215D02*
X23967161Y-10498167D01*
X23967161Y-10498167D02*
X23986208Y-10488643D01*
X23986208Y-10488643D02*
X24033827Y-10488643D01*
X24033827Y-10488643D02*
X24052875Y-10479120D01*
X24148113Y-10431500D02*
X24148113Y-10631500D01*
X24148113Y-10441024D02*
X24167161Y-10431500D01*
X24167161Y-10431500D02*
X24205256Y-10431500D01*
X24205256Y-10431500D02*
X24224303Y-10441024D01*
X24224303Y-10441024D02*
X24233827Y-10450548D01*
X24233827Y-10450548D02*
X24243351Y-10469596D01*
X24243351Y-10469596D02*
X24243351Y-10526739D01*
X24243351Y-10526739D02*
X24233827Y-10545786D01*
X24233827Y-10545786D02*
X24224303Y-10555310D01*
X24224303Y-10555310D02*
X24205256Y-10564834D01*
X24205256Y-10564834D02*
X24167161Y-10564834D01*
X24167161Y-10564834D02*
X24148113Y-10555310D01*
X24329065Y-10545786D02*
X24338589Y-10555310D01*
X24338589Y-10555310D02*
X24329065Y-10564834D01*
X24329065Y-10564834D02*
X24319542Y-10555310D01*
X24319542Y-10555310D02*
X24329065Y-10545786D01*
X24329065Y-10545786D02*
X24329065Y-10564834D01*
X24329065Y-10441024D02*
X24338589Y-10450548D01*
X24338589Y-10450548D02*
X24329065Y-10460072D01*
X24329065Y-10460072D02*
X24319542Y-10450548D01*
X24319542Y-10450548D02*
X24329065Y-10441024D01*
X24329065Y-10441024D02*
X24329065Y-10460072D01*
D13*
X22626860Y-10858350D02*
X22696860Y-10928350D01*
X22696860Y-10858350D02*
X22626860Y-10928350D01*
D12*
X22995732Y-10784834D02*
X23014780Y-10784834D01*
X23014780Y-10784834D02*
X23033827Y-10794358D01*
X23033827Y-10794358D02*
X23043351Y-10803881D01*
X23043351Y-10803881D02*
X23052875Y-10822929D01*
X23052875Y-10822929D02*
X23062399Y-10861024D01*
X23062399Y-10861024D02*
X23062399Y-10908643D01*
X23062399Y-10908643D02*
X23052875Y-10946739D01*
X23052875Y-10946739D02*
X23043351Y-10965786D01*
X23043351Y-10965786D02*
X23033827Y-10975310D01*
X23033827Y-10975310D02*
X23014780Y-10984834D01*
X23014780Y-10984834D02*
X22995732Y-10984834D01*
X22995732Y-10984834D02*
X22976684Y-10975310D01*
X22976684Y-10975310D02*
X22967161Y-10965786D01*
X22967161Y-10965786D02*
X22957637Y-10946739D01*
X22957637Y-10946739D02*
X22948113Y-10908643D01*
X22948113Y-10908643D02*
X22948113Y-10861024D01*
X22948113Y-10861024D02*
X22957637Y-10822929D01*
X22957637Y-10822929D02*
X22967161Y-10803881D01*
X22967161Y-10803881D02*
X22976684Y-10794358D01*
X22976684Y-10794358D02*
X22995732Y-10784834D01*
X23148113Y-10965786D02*
X23157637Y-10975310D01*
X23157637Y-10975310D02*
X23148113Y-10984834D01*
X23148113Y-10984834D02*
X23138589Y-10975310D01*
X23138589Y-10975310D02*
X23148113Y-10965786D01*
X23148113Y-10965786D02*
X23148113Y-10984834D01*
X23224303Y-10784834D02*
X23357637Y-10784834D01*
X23357637Y-10784834D02*
X23271922Y-10984834D01*
X23471922Y-10784834D02*
X23490970Y-10784834D01*
X23490970Y-10784834D02*
X23510018Y-10794358D01*
X23510018Y-10794358D02*
X23519542Y-10803881D01*
X23519542Y-10803881D02*
X23529065Y-10822929D01*
X23529065Y-10822929D02*
X23538589Y-10861024D01*
X23538589Y-10861024D02*
X23538589Y-10908643D01*
X23538589Y-10908643D02*
X23529065Y-10946739D01*
X23529065Y-10946739D02*
X23519542Y-10965786D01*
X23519542Y-10965786D02*
X23510018Y-10975310D01*
X23510018Y-10975310D02*
X23490970Y-10984834D01*
X23490970Y-10984834D02*
X23471922Y-10984834D01*
X23471922Y-10984834D02*
X23452875Y-10975310D01*
X23452875Y-10975310D02*
X23443351Y-10965786D01*
X23443351Y-10965786D02*
X23433827Y-10946739D01*
X23433827Y-10946739D02*
X23424303Y-10908643D01*
X23424303Y-10908643D02*
X23424303Y-10861024D01*
X23424303Y-10861024D02*
X23433827Y-10822929D01*
X23433827Y-10822929D02*
X23443351Y-10803881D01*
X23443351Y-10803881D02*
X23452875Y-10794358D01*
X23452875Y-10794358D02*
X23471922Y-10784834D01*
X23662399Y-10784834D02*
X23681446Y-10784834D01*
X23681446Y-10784834D02*
X23700494Y-10794358D01*
X23700494Y-10794358D02*
X23710018Y-10803881D01*
X23710018Y-10803881D02*
X23719542Y-10822929D01*
X23719542Y-10822929D02*
X23729065Y-10861024D01*
X23729065Y-10861024D02*
X23729065Y-10908643D01*
X23729065Y-10908643D02*
X23719542Y-10946739D01*
X23719542Y-10946739D02*
X23710018Y-10965786D01*
X23710018Y-10965786D02*
X23700494Y-10975310D01*
X23700494Y-10975310D02*
X23681446Y-10984834D01*
X23681446Y-10984834D02*
X23662399Y-10984834D01*
X23662399Y-10984834D02*
X23643351Y-10975310D01*
X23643351Y-10975310D02*
X23633827Y-10965786D01*
X23633827Y-10965786D02*
X23624303Y-10946739D01*
X23624303Y-10946739D02*
X23614780Y-10908643D01*
X23614780Y-10908643D02*
X23614780Y-10861024D01*
X23614780Y-10861024D02*
X23624303Y-10822929D01*
X23624303Y-10822929D02*
X23633827Y-10803881D01*
X23633827Y-10803881D02*
X23643351Y-10794358D01*
X23643351Y-10794358D02*
X23662399Y-10784834D01*
X23814780Y-10984834D02*
X23814780Y-10851500D01*
X23814780Y-10870548D02*
X23824303Y-10861024D01*
X23824303Y-10861024D02*
X23843351Y-10851500D01*
X23843351Y-10851500D02*
X23871923Y-10851500D01*
X23871923Y-10851500D02*
X23890970Y-10861024D01*
X23890970Y-10861024D02*
X23900494Y-10880072D01*
X23900494Y-10880072D02*
X23900494Y-10984834D01*
X23900494Y-10880072D02*
X23910018Y-10861024D01*
X23910018Y-10861024D02*
X23929065Y-10851500D01*
X23929065Y-10851500D02*
X23957637Y-10851500D01*
X23957637Y-10851500D02*
X23976684Y-10861024D01*
X23976684Y-10861024D02*
X23986208Y-10880072D01*
X23986208Y-10880072D02*
X23986208Y-10984834D01*
X24081446Y-10984834D02*
X24081446Y-10851500D01*
X24081446Y-10870548D02*
X24090970Y-10861024D01*
X24090970Y-10861024D02*
X24110018Y-10851500D01*
X24110018Y-10851500D02*
X24138589Y-10851500D01*
X24138589Y-10851500D02*
X24157637Y-10861024D01*
X24157637Y-10861024D02*
X24167161Y-10880072D01*
X24167161Y-10880072D02*
X24167161Y-10984834D01*
X24167161Y-10880072D02*
X24176684Y-10861024D01*
X24176684Y-10861024D02*
X24195732Y-10851500D01*
X24195732Y-10851500D02*
X24224303Y-10851500D01*
X24224303Y-10851500D02*
X24243351Y-10861024D01*
X24243351Y-10861024D02*
X24252875Y-10880072D01*
X24252875Y-10880072D02*
X24252875Y-10984834D01*
X24643351Y-10775310D02*
X24471923Y-11032453D01*
X24900494Y-10784834D02*
X24919542Y-10784834D01*
X24919542Y-10784834D02*
X24938589Y-10794358D01*
X24938589Y-10794358D02*
X24948113Y-10803881D01*
X24948113Y-10803881D02*
X24957637Y-10822929D01*
X24957637Y-10822929D02*
X24967161Y-10861024D01*
X24967161Y-10861024D02*
X24967161Y-10908643D01*
X24967161Y-10908643D02*
X24957637Y-10946739D01*
X24957637Y-10946739D02*
X24948113Y-10965786D01*
X24948113Y-10965786D02*
X24938589Y-10975310D01*
X24938589Y-10975310D02*
X24919542Y-10984834D01*
X24919542Y-10984834D02*
X24900494Y-10984834D01*
X24900494Y-10984834D02*
X24881446Y-10975310D01*
X24881446Y-10975310D02*
X24871923Y-10965786D01*
X24871923Y-10965786D02*
X24862399Y-10946739D01*
X24862399Y-10946739D02*
X24852875Y-10908643D01*
X24852875Y-10908643D02*
X24852875Y-10861024D01*
X24852875Y-10861024D02*
X24862399Y-10822929D01*
X24862399Y-10822929D02*
X24871923Y-10803881D01*
X24871923Y-10803881D02*
X24881446Y-10794358D01*
X24881446Y-10794358D02*
X24900494Y-10784834D01*
X25052875Y-10965786D02*
X25062399Y-10975310D01*
X25062399Y-10975310D02*
X25052875Y-10984834D01*
X25052875Y-10984834D02*
X25043351Y-10975310D01*
X25043351Y-10975310D02*
X25052875Y-10965786D01*
X25052875Y-10965786D02*
X25052875Y-10984834D01*
X25186208Y-10784834D02*
X25205256Y-10784834D01*
X25205256Y-10784834D02*
X25224304Y-10794358D01*
X25224304Y-10794358D02*
X25233827Y-10803881D01*
X25233827Y-10803881D02*
X25243351Y-10822929D01*
X25243351Y-10822929D02*
X25252875Y-10861024D01*
X25252875Y-10861024D02*
X25252875Y-10908643D01*
X25252875Y-10908643D02*
X25243351Y-10946739D01*
X25243351Y-10946739D02*
X25233827Y-10965786D01*
X25233827Y-10965786D02*
X25224304Y-10975310D01*
X25224304Y-10975310D02*
X25205256Y-10984834D01*
X25205256Y-10984834D02*
X25186208Y-10984834D01*
X25186208Y-10984834D02*
X25167161Y-10975310D01*
X25167161Y-10975310D02*
X25157637Y-10965786D01*
X25157637Y-10965786D02*
X25148113Y-10946739D01*
X25148113Y-10946739D02*
X25138589Y-10908643D01*
X25138589Y-10908643D02*
X25138589Y-10861024D01*
X25138589Y-10861024D02*
X25148113Y-10822929D01*
X25148113Y-10822929D02*
X25157637Y-10803881D01*
X25157637Y-10803881D02*
X25167161Y-10794358D01*
X25167161Y-10794358D02*
X25186208Y-10784834D01*
X25329066Y-10803881D02*
X25338589Y-10794358D01*
X25338589Y-10794358D02*
X25357637Y-10784834D01*
X25357637Y-10784834D02*
X25405256Y-10784834D01*
X25405256Y-10784834D02*
X25424304Y-10794358D01*
X25424304Y-10794358D02*
X25433827Y-10803881D01*
X25433827Y-10803881D02*
X25443351Y-10822929D01*
X25443351Y-10822929D02*
X25443351Y-10841977D01*
X25443351Y-10841977D02*
X25433827Y-10870548D01*
X25433827Y-10870548D02*
X25319542Y-10984834D01*
X25319542Y-10984834D02*
X25443351Y-10984834D01*
X25510018Y-10784834D02*
X25643351Y-10784834D01*
X25643351Y-10784834D02*
X25557637Y-10984834D01*
X25805256Y-10784834D02*
X25767161Y-10784834D01*
X25767161Y-10784834D02*
X25748113Y-10794358D01*
X25748113Y-10794358D02*
X25738589Y-10803881D01*
X25738589Y-10803881D02*
X25719542Y-10832453D01*
X25719542Y-10832453D02*
X25710018Y-10870548D01*
X25710018Y-10870548D02*
X25710018Y-10946739D01*
X25710018Y-10946739D02*
X25719542Y-10965786D01*
X25719542Y-10965786D02*
X25729066Y-10975310D01*
X25729066Y-10975310D02*
X25748113Y-10984834D01*
X25748113Y-10984834D02*
X25786208Y-10984834D01*
X25786208Y-10984834D02*
X25805256Y-10975310D01*
X25805256Y-10975310D02*
X25814780Y-10965786D01*
X25814780Y-10965786D02*
X25824304Y-10946739D01*
X25824304Y-10946739D02*
X25824304Y-10899120D01*
X25824304Y-10899120D02*
X25814780Y-10880072D01*
X25814780Y-10880072D02*
X25805256Y-10870548D01*
X25805256Y-10870548D02*
X25786208Y-10861024D01*
X25786208Y-10861024D02*
X25748113Y-10861024D01*
X25748113Y-10861024D02*
X25729066Y-10870548D01*
X25729066Y-10870548D02*
X25719542Y-10880072D01*
X25719542Y-10880072D02*
X25710018Y-10899120D01*
X25900494Y-10784834D02*
X25900494Y-10822929D01*
X25976685Y-10784834D02*
X25976685Y-10822929D01*
X26271923Y-11061024D02*
X26262399Y-11051500D01*
X26262399Y-11051500D02*
X26243351Y-11022929D01*
X26243351Y-11022929D02*
X26233828Y-11003881D01*
X26233828Y-11003881D02*
X26224304Y-10975310D01*
X26224304Y-10975310D02*
X26214780Y-10927691D01*
X26214780Y-10927691D02*
X26214780Y-10889596D01*
X26214780Y-10889596D02*
X26224304Y-10841977D01*
X26224304Y-10841977D02*
X26233828Y-10813405D01*
X26233828Y-10813405D02*
X26243351Y-10794358D01*
X26243351Y-10794358D02*
X26262399Y-10765786D01*
X26262399Y-10765786D02*
X26271923Y-10756262D01*
X26376685Y-10870548D02*
X26357637Y-10861024D01*
X26357637Y-10861024D02*
X26348113Y-10851500D01*
X26348113Y-10851500D02*
X26338589Y-10832453D01*
X26338589Y-10832453D02*
X26338589Y-10822929D01*
X26338589Y-10822929D02*
X26348113Y-10803881D01*
X26348113Y-10803881D02*
X26357637Y-10794358D01*
X26357637Y-10794358D02*
X26376685Y-10784834D01*
X26376685Y-10784834D02*
X26414780Y-10784834D01*
X26414780Y-10784834D02*
X26433828Y-10794358D01*
X26433828Y-10794358D02*
X26443351Y-10803881D01*
X26443351Y-10803881D02*
X26452875Y-10822929D01*
X26452875Y-10822929D02*
X26452875Y-10832453D01*
X26452875Y-10832453D02*
X26443351Y-10851500D01*
X26443351Y-10851500D02*
X26433828Y-10861024D01*
X26433828Y-10861024D02*
X26414780Y-10870548D01*
X26414780Y-10870548D02*
X26376685Y-10870548D01*
X26376685Y-10870548D02*
X26357637Y-10880072D01*
X26357637Y-10880072D02*
X26348113Y-10889596D01*
X26348113Y-10889596D02*
X26338589Y-10908643D01*
X26338589Y-10908643D02*
X26338589Y-10946739D01*
X26338589Y-10946739D02*
X26348113Y-10965786D01*
X26348113Y-10965786D02*
X26357637Y-10975310D01*
X26357637Y-10975310D02*
X26376685Y-10984834D01*
X26376685Y-10984834D02*
X26414780Y-10984834D01*
X26414780Y-10984834D02*
X26433828Y-10975310D01*
X26433828Y-10975310D02*
X26443351Y-10965786D01*
X26443351Y-10965786D02*
X26452875Y-10946739D01*
X26452875Y-10946739D02*
X26452875Y-10908643D01*
X26452875Y-10908643D02*
X26443351Y-10889596D01*
X26443351Y-10889596D02*
X26433828Y-10880072D01*
X26433828Y-10880072D02*
X26414780Y-10870548D01*
X26690970Y-10984834D02*
X26690970Y-10784834D01*
X26776685Y-10984834D02*
X26776685Y-10880072D01*
X26776685Y-10880072D02*
X26767161Y-10861024D01*
X26767161Y-10861024D02*
X26748113Y-10851500D01*
X26748113Y-10851500D02*
X26719542Y-10851500D01*
X26719542Y-10851500D02*
X26700494Y-10861024D01*
X26700494Y-10861024D02*
X26690970Y-10870548D01*
X26900494Y-10984834D02*
X26881447Y-10975310D01*
X26881447Y-10975310D02*
X26871923Y-10965786D01*
X26871923Y-10965786D02*
X26862399Y-10946739D01*
X26862399Y-10946739D02*
X26862399Y-10889596D01*
X26862399Y-10889596D02*
X26871923Y-10870548D01*
X26871923Y-10870548D02*
X26881447Y-10861024D01*
X26881447Y-10861024D02*
X26900494Y-10851500D01*
X26900494Y-10851500D02*
X26929066Y-10851500D01*
X26929066Y-10851500D02*
X26948113Y-10861024D01*
X26948113Y-10861024D02*
X26957637Y-10870548D01*
X26957637Y-10870548D02*
X26967161Y-10889596D01*
X26967161Y-10889596D02*
X26967161Y-10946739D01*
X26967161Y-10946739D02*
X26957637Y-10965786D01*
X26957637Y-10965786D02*
X26948113Y-10975310D01*
X26948113Y-10975310D02*
X26929066Y-10984834D01*
X26929066Y-10984834D02*
X26900494Y-10984834D01*
X27081447Y-10984834D02*
X27062399Y-10975310D01*
X27062399Y-10975310D02*
X27052875Y-10956262D01*
X27052875Y-10956262D02*
X27052875Y-10784834D01*
X27233828Y-10975310D02*
X27214780Y-10984834D01*
X27214780Y-10984834D02*
X27176685Y-10984834D01*
X27176685Y-10984834D02*
X27157637Y-10975310D01*
X27157637Y-10975310D02*
X27148113Y-10956262D01*
X27148113Y-10956262D02*
X27148113Y-10880072D01*
X27148113Y-10880072D02*
X27157637Y-10861024D01*
X27157637Y-10861024D02*
X27176685Y-10851500D01*
X27176685Y-10851500D02*
X27214780Y-10851500D01*
X27214780Y-10851500D02*
X27233828Y-10861024D01*
X27233828Y-10861024D02*
X27243351Y-10880072D01*
X27243351Y-10880072D02*
X27243351Y-10899120D01*
X27243351Y-10899120D02*
X27148113Y-10918167D01*
X27319542Y-10975310D02*
X27338590Y-10984834D01*
X27338590Y-10984834D02*
X27376685Y-10984834D01*
X27376685Y-10984834D02*
X27395732Y-10975310D01*
X27395732Y-10975310D02*
X27405256Y-10956262D01*
X27405256Y-10956262D02*
X27405256Y-10946739D01*
X27405256Y-10946739D02*
X27395732Y-10927691D01*
X27395732Y-10927691D02*
X27376685Y-10918167D01*
X27376685Y-10918167D02*
X27348113Y-10918167D01*
X27348113Y-10918167D02*
X27329066Y-10908643D01*
X27329066Y-10908643D02*
X27319542Y-10889596D01*
X27319542Y-10889596D02*
X27319542Y-10880072D01*
X27319542Y-10880072D02*
X27329066Y-10861024D01*
X27329066Y-10861024D02*
X27348113Y-10851500D01*
X27348113Y-10851500D02*
X27376685Y-10851500D01*
X27376685Y-10851500D02*
X27395732Y-10861024D01*
X27471923Y-11061024D02*
X27481447Y-11051500D01*
X27481447Y-11051500D02*
X27500494Y-11022929D01*
X27500494Y-11022929D02*
X27510018Y-11003881D01*
X27510018Y-11003881D02*
X27519542Y-10975310D01*
X27519542Y-10975310D02*
X27529066Y-10927691D01*
X27529066Y-10927691D02*
X27529066Y-10889596D01*
X27529066Y-10889596D02*
X27519542Y-10841977D01*
X27519542Y-10841977D02*
X27510018Y-10813405D01*
X27510018Y-10813405D02*
X27500494Y-10794358D01*
X27500494Y-10794358D02*
X27481447Y-10765786D01*
X27481447Y-10765786D02*
X27471923Y-10756262D01*
D13*
X22696860Y-11157350D02*
G75*
G02*
X22616860Y-11157350I-40000J0D01*
G01*
X22616860Y-11157350D02*
G75*
G02*
X22696860Y-11157350I40000J0D01*
G01*
D12*
X22995732Y-11048834D02*
X23014780Y-11048834D01*
X23014780Y-11048834D02*
X23033827Y-11058358D01*
X23033827Y-11058358D02*
X23043351Y-11067881D01*
X23043351Y-11067881D02*
X23052875Y-11086929D01*
X23052875Y-11086929D02*
X23062399Y-11125024D01*
X23062399Y-11125024D02*
X23062399Y-11172643D01*
X23062399Y-11172643D02*
X23052875Y-11210738D01*
X23052875Y-11210738D02*
X23043351Y-11229786D01*
X23043351Y-11229786D02*
X23033827Y-11239310D01*
X23033827Y-11239310D02*
X23014780Y-11248834D01*
X23014780Y-11248834D02*
X22995732Y-11248834D01*
X22995732Y-11248834D02*
X22976684Y-11239310D01*
X22976684Y-11239310D02*
X22967161Y-11229786D01*
X22967161Y-11229786D02*
X22957637Y-11210738D01*
X22957637Y-11210738D02*
X22948113Y-11172643D01*
X22948113Y-11172643D02*
X22948113Y-11125024D01*
X22948113Y-11125024D02*
X22957637Y-11086929D01*
X22957637Y-11086929D02*
X22967161Y-11067881D01*
X22967161Y-11067881D02*
X22976684Y-11058358D01*
X22976684Y-11058358D02*
X22995732Y-11048834D01*
X23148113Y-11229786D02*
X23157637Y-11239310D01*
X23157637Y-11239310D02*
X23148113Y-11248834D01*
X23148113Y-11248834D02*
X23138589Y-11239310D01*
X23138589Y-11239310D02*
X23148113Y-11229786D01*
X23148113Y-11229786D02*
X23148113Y-11248834D01*
X23271922Y-11134548D02*
X23252875Y-11125024D01*
X23252875Y-11125024D02*
X23243351Y-11115500D01*
X23243351Y-11115500D02*
X23233827Y-11096453D01*
X23233827Y-11096453D02*
X23233827Y-11086929D01*
X23233827Y-11086929D02*
X23243351Y-11067881D01*
X23243351Y-11067881D02*
X23252875Y-11058358D01*
X23252875Y-11058358D02*
X23271922Y-11048834D01*
X23271922Y-11048834D02*
X23310018Y-11048834D01*
X23310018Y-11048834D02*
X23329065Y-11058358D01*
X23329065Y-11058358D02*
X23338589Y-11067881D01*
X23338589Y-11067881D02*
X23348113Y-11086929D01*
X23348113Y-11086929D02*
X23348113Y-11096453D01*
X23348113Y-11096453D02*
X23338589Y-11115500D01*
X23338589Y-11115500D02*
X23329065Y-11125024D01*
X23329065Y-11125024D02*
X23310018Y-11134548D01*
X23310018Y-11134548D02*
X23271922Y-11134548D01*
X23271922Y-11134548D02*
X23252875Y-11144072D01*
X23252875Y-11144072D02*
X23243351Y-11153596D01*
X23243351Y-11153596D02*
X23233827Y-11172643D01*
X23233827Y-11172643D02*
X23233827Y-11210738D01*
X23233827Y-11210738D02*
X23243351Y-11229786D01*
X23243351Y-11229786D02*
X23252875Y-11239310D01*
X23252875Y-11239310D02*
X23271922Y-11248834D01*
X23271922Y-11248834D02*
X23310018Y-11248834D01*
X23310018Y-11248834D02*
X23329065Y-11239310D01*
X23329065Y-11239310D02*
X23338589Y-11229786D01*
X23338589Y-11229786D02*
X23348113Y-11210738D01*
X23348113Y-11210738D02*
X23348113Y-11172643D01*
X23348113Y-11172643D02*
X23338589Y-11153596D01*
X23338589Y-11153596D02*
X23329065Y-11144072D01*
X23329065Y-11144072D02*
X23310018Y-11134548D01*
X23471922Y-11048834D02*
X23490970Y-11048834D01*
X23490970Y-11048834D02*
X23510018Y-11058358D01*
X23510018Y-11058358D02*
X23519542Y-11067881D01*
X23519542Y-11067881D02*
X23529065Y-11086929D01*
X23529065Y-11086929D02*
X23538589Y-11125024D01*
X23538589Y-11125024D02*
X23538589Y-11172643D01*
X23538589Y-11172643D02*
X23529065Y-11210738D01*
X23529065Y-11210738D02*
X23519542Y-11229786D01*
X23519542Y-11229786D02*
X23510018Y-11239310D01*
X23510018Y-11239310D02*
X23490970Y-11248834D01*
X23490970Y-11248834D02*
X23471922Y-11248834D01*
X23471922Y-11248834D02*
X23452875Y-11239310D01*
X23452875Y-11239310D02*
X23443351Y-11229786D01*
X23443351Y-11229786D02*
X23433827Y-11210738D01*
X23433827Y-11210738D02*
X23424303Y-11172643D01*
X23424303Y-11172643D02*
X23424303Y-11125024D01*
X23424303Y-11125024D02*
X23433827Y-11086929D01*
X23433827Y-11086929D02*
X23443351Y-11067881D01*
X23443351Y-11067881D02*
X23452875Y-11058358D01*
X23452875Y-11058358D02*
X23471922Y-11048834D01*
X23662399Y-11048834D02*
X23681446Y-11048834D01*
X23681446Y-11048834D02*
X23700494Y-11058358D01*
X23700494Y-11058358D02*
X23710018Y-11067881D01*
X23710018Y-11067881D02*
X23719542Y-11086929D01*
X23719542Y-11086929D02*
X23729065Y-11125024D01*
X23729065Y-11125024D02*
X23729065Y-11172643D01*
X23729065Y-11172643D02*
X23719542Y-11210738D01*
X23719542Y-11210738D02*
X23710018Y-11229786D01*
X23710018Y-11229786D02*
X23700494Y-11239310D01*
X23700494Y-11239310D02*
X23681446Y-11248834D01*
X23681446Y-11248834D02*
X23662399Y-11248834D01*
X23662399Y-11248834D02*
X23643351Y-11239310D01*
X23643351Y-11239310D02*
X23633827Y-11229786D01*
X23633827Y-11229786D02*
X23624303Y-11210738D01*
X23624303Y-11210738D02*
X23614780Y-11172643D01*
X23614780Y-11172643D02*
X23614780Y-11125024D01*
X23614780Y-11125024D02*
X23624303Y-11086929D01*
X23624303Y-11086929D02*
X23633827Y-11067881D01*
X23633827Y-11067881D02*
X23643351Y-11058358D01*
X23643351Y-11058358D02*
X23662399Y-11048834D01*
X23814780Y-11248834D02*
X23814780Y-11115500D01*
X23814780Y-11134548D02*
X23824303Y-11125024D01*
X23824303Y-11125024D02*
X23843351Y-11115500D01*
X23843351Y-11115500D02*
X23871923Y-11115500D01*
X23871923Y-11115500D02*
X23890970Y-11125024D01*
X23890970Y-11125024D02*
X23900494Y-11144072D01*
X23900494Y-11144072D02*
X23900494Y-11248834D01*
X23900494Y-11144072D02*
X23910018Y-11125024D01*
X23910018Y-11125024D02*
X23929065Y-11115500D01*
X23929065Y-11115500D02*
X23957637Y-11115500D01*
X23957637Y-11115500D02*
X23976684Y-11125024D01*
X23976684Y-11125024D02*
X23986208Y-11144072D01*
X23986208Y-11144072D02*
X23986208Y-11248834D01*
X24081446Y-11248834D02*
X24081446Y-11115500D01*
X24081446Y-11134548D02*
X24090970Y-11125024D01*
X24090970Y-11125024D02*
X24110018Y-11115500D01*
X24110018Y-11115500D02*
X24138589Y-11115500D01*
X24138589Y-11115500D02*
X24157637Y-11125024D01*
X24157637Y-11125024D02*
X24167161Y-11144072D01*
X24167161Y-11144072D02*
X24167161Y-11248834D01*
X24167161Y-11144072D02*
X24176684Y-11125024D01*
X24176684Y-11125024D02*
X24195732Y-11115500D01*
X24195732Y-11115500D02*
X24224303Y-11115500D01*
X24224303Y-11115500D02*
X24243351Y-11125024D01*
X24243351Y-11125024D02*
X24252875Y-11144072D01*
X24252875Y-11144072D02*
X24252875Y-11248834D01*
X24643351Y-11039310D02*
X24471923Y-11296453D01*
X24900494Y-11048834D02*
X24919542Y-11048834D01*
X24919542Y-11048834D02*
X24938589Y-11058358D01*
X24938589Y-11058358D02*
X24948113Y-11067881D01*
X24948113Y-11067881D02*
X24957637Y-11086929D01*
X24957637Y-11086929D02*
X24967161Y-11125024D01*
X24967161Y-11125024D02*
X24967161Y-11172643D01*
X24967161Y-11172643D02*
X24957637Y-11210738D01*
X24957637Y-11210738D02*
X24948113Y-11229786D01*
X24948113Y-11229786D02*
X24938589Y-11239310D01*
X24938589Y-11239310D02*
X24919542Y-11248834D01*
X24919542Y-11248834D02*
X24900494Y-11248834D01*
X24900494Y-11248834D02*
X24881446Y-11239310D01*
X24881446Y-11239310D02*
X24871923Y-11229786D01*
X24871923Y-11229786D02*
X24862399Y-11210738D01*
X24862399Y-11210738D02*
X24852875Y-11172643D01*
X24852875Y-11172643D02*
X24852875Y-11125024D01*
X24852875Y-11125024D02*
X24862399Y-11086929D01*
X24862399Y-11086929D02*
X24871923Y-11067881D01*
X24871923Y-11067881D02*
X24881446Y-11058358D01*
X24881446Y-11058358D02*
X24900494Y-11048834D01*
X25052875Y-11229786D02*
X25062399Y-11239310D01*
X25062399Y-11239310D02*
X25052875Y-11248834D01*
X25052875Y-11248834D02*
X25043351Y-11239310D01*
X25043351Y-11239310D02*
X25052875Y-11229786D01*
X25052875Y-11229786D02*
X25052875Y-11248834D01*
X25186208Y-11048834D02*
X25205256Y-11048834D01*
X25205256Y-11048834D02*
X25224304Y-11058358D01*
X25224304Y-11058358D02*
X25233827Y-11067881D01*
X25233827Y-11067881D02*
X25243351Y-11086929D01*
X25243351Y-11086929D02*
X25252875Y-11125024D01*
X25252875Y-11125024D02*
X25252875Y-11172643D01*
X25252875Y-11172643D02*
X25243351Y-11210738D01*
X25243351Y-11210738D02*
X25233827Y-11229786D01*
X25233827Y-11229786D02*
X25224304Y-11239310D01*
X25224304Y-11239310D02*
X25205256Y-11248834D01*
X25205256Y-11248834D02*
X25186208Y-11248834D01*
X25186208Y-11248834D02*
X25167161Y-11239310D01*
X25167161Y-11239310D02*
X25157637Y-11229786D01*
X25157637Y-11229786D02*
X25148113Y-11210738D01*
X25148113Y-11210738D02*
X25138589Y-11172643D01*
X25138589Y-11172643D02*
X25138589Y-11125024D01*
X25138589Y-11125024D02*
X25148113Y-11086929D01*
X25148113Y-11086929D02*
X25157637Y-11067881D01*
X25157637Y-11067881D02*
X25167161Y-11058358D01*
X25167161Y-11058358D02*
X25186208Y-11048834D01*
X25319542Y-11048834D02*
X25443351Y-11048834D01*
X25443351Y-11048834D02*
X25376685Y-11125024D01*
X25376685Y-11125024D02*
X25405256Y-11125024D01*
X25405256Y-11125024D02*
X25424304Y-11134548D01*
X25424304Y-11134548D02*
X25433827Y-11144072D01*
X25433827Y-11144072D02*
X25443351Y-11163120D01*
X25443351Y-11163120D02*
X25443351Y-11210738D01*
X25443351Y-11210738D02*
X25433827Y-11229786D01*
X25433827Y-11229786D02*
X25424304Y-11239310D01*
X25424304Y-11239310D02*
X25405256Y-11248834D01*
X25405256Y-11248834D02*
X25348113Y-11248834D01*
X25348113Y-11248834D02*
X25329066Y-11239310D01*
X25329066Y-11239310D02*
X25319542Y-11229786D01*
X25633827Y-11248834D02*
X25519542Y-11248834D01*
X25576685Y-11248834D02*
X25576685Y-11048834D01*
X25576685Y-11048834D02*
X25557637Y-11077405D01*
X25557637Y-11077405D02*
X25538589Y-11096453D01*
X25538589Y-11096453D02*
X25519542Y-11105977D01*
X25814780Y-11048834D02*
X25719542Y-11048834D01*
X25719542Y-11048834D02*
X25710018Y-11144072D01*
X25710018Y-11144072D02*
X25719542Y-11134548D01*
X25719542Y-11134548D02*
X25738589Y-11125024D01*
X25738589Y-11125024D02*
X25786208Y-11125024D01*
X25786208Y-11125024D02*
X25805256Y-11134548D01*
X25805256Y-11134548D02*
X25814780Y-11144072D01*
X25814780Y-11144072D02*
X25824304Y-11163120D01*
X25824304Y-11163120D02*
X25824304Y-11210738D01*
X25824304Y-11210738D02*
X25814780Y-11229786D01*
X25814780Y-11229786D02*
X25805256Y-11239310D01*
X25805256Y-11239310D02*
X25786208Y-11248834D01*
X25786208Y-11248834D02*
X25738589Y-11248834D01*
X25738589Y-11248834D02*
X25719542Y-11239310D01*
X25719542Y-11239310D02*
X25710018Y-11229786D01*
X25900494Y-11048834D02*
X25900494Y-11086929D01*
X25976685Y-11048834D02*
X25976685Y-11086929D01*
X26271923Y-11325024D02*
X26262399Y-11315500D01*
X26262399Y-11315500D02*
X26243351Y-11286929D01*
X26243351Y-11286929D02*
X26233828Y-11267881D01*
X26233828Y-11267881D02*
X26224304Y-11239310D01*
X26224304Y-11239310D02*
X26214780Y-11191691D01*
X26214780Y-11191691D02*
X26214780Y-11153596D01*
X26214780Y-11153596D02*
X26224304Y-11105977D01*
X26224304Y-11105977D02*
X26233828Y-11077405D01*
X26233828Y-11077405D02*
X26243351Y-11058358D01*
X26243351Y-11058358D02*
X26262399Y-11029786D01*
X26262399Y-11029786D02*
X26271923Y-11020262D01*
X26433828Y-11048834D02*
X26395732Y-11048834D01*
X26395732Y-11048834D02*
X26376685Y-11058358D01*
X26376685Y-11058358D02*
X26367161Y-11067881D01*
X26367161Y-11067881D02*
X26348113Y-11096453D01*
X26348113Y-11096453D02*
X26338589Y-11134548D01*
X26338589Y-11134548D02*
X26338589Y-11210738D01*
X26338589Y-11210738D02*
X26348113Y-11229786D01*
X26348113Y-11229786D02*
X26357637Y-11239310D01*
X26357637Y-11239310D02*
X26376685Y-11248834D01*
X26376685Y-11248834D02*
X26414780Y-11248834D01*
X26414780Y-11248834D02*
X26433828Y-11239310D01*
X26433828Y-11239310D02*
X26443351Y-11229786D01*
X26443351Y-11229786D02*
X26452875Y-11210738D01*
X26452875Y-11210738D02*
X26452875Y-11163120D01*
X26452875Y-11163120D02*
X26443351Y-11144072D01*
X26443351Y-11144072D02*
X26433828Y-11134548D01*
X26433828Y-11134548D02*
X26414780Y-11125024D01*
X26414780Y-11125024D02*
X26376685Y-11125024D01*
X26376685Y-11125024D02*
X26357637Y-11134548D01*
X26357637Y-11134548D02*
X26348113Y-11144072D01*
X26348113Y-11144072D02*
X26338589Y-11163120D01*
X26690970Y-11248834D02*
X26690970Y-11048834D01*
X26776685Y-11248834D02*
X26776685Y-11144072D01*
X26776685Y-11144072D02*
X26767161Y-11125024D01*
X26767161Y-11125024D02*
X26748113Y-11115500D01*
X26748113Y-11115500D02*
X26719542Y-11115500D01*
X26719542Y-11115500D02*
X26700494Y-11125024D01*
X26700494Y-11125024D02*
X26690970Y-11134548D01*
X26900494Y-11248834D02*
X26881447Y-11239310D01*
X26881447Y-11239310D02*
X26871923Y-11229786D01*
X26871923Y-11229786D02*
X26862399Y-11210738D01*
X26862399Y-11210738D02*
X26862399Y-11153596D01*
X26862399Y-11153596D02*
X26871923Y-11134548D01*
X26871923Y-11134548D02*
X26881447Y-11125024D01*
X26881447Y-11125024D02*
X26900494Y-11115500D01*
X26900494Y-11115500D02*
X26929066Y-11115500D01*
X26929066Y-11115500D02*
X26948113Y-11125024D01*
X26948113Y-11125024D02*
X26957637Y-11134548D01*
X26957637Y-11134548D02*
X26967161Y-11153596D01*
X26967161Y-11153596D02*
X26967161Y-11210738D01*
X26967161Y-11210738D02*
X26957637Y-11229786D01*
X26957637Y-11229786D02*
X26948113Y-11239310D01*
X26948113Y-11239310D02*
X26929066Y-11248834D01*
X26929066Y-11248834D02*
X26900494Y-11248834D01*
X27081447Y-11248834D02*
X27062399Y-11239310D01*
X27062399Y-11239310D02*
X27052875Y-11220262D01*
X27052875Y-11220262D02*
X27052875Y-11048834D01*
X27233828Y-11239310D02*
X27214780Y-11248834D01*
X27214780Y-11248834D02*
X27176685Y-11248834D01*
X27176685Y-11248834D02*
X27157637Y-11239310D01*
X27157637Y-11239310D02*
X27148113Y-11220262D01*
X27148113Y-11220262D02*
X27148113Y-11144072D01*
X27148113Y-11144072D02*
X27157637Y-11125024D01*
X27157637Y-11125024D02*
X27176685Y-11115500D01*
X27176685Y-11115500D02*
X27214780Y-11115500D01*
X27214780Y-11115500D02*
X27233828Y-11125024D01*
X27233828Y-11125024D02*
X27243351Y-11144072D01*
X27243351Y-11144072D02*
X27243351Y-11163120D01*
X27243351Y-11163120D02*
X27148113Y-11182167D01*
X27319542Y-11239310D02*
X27338590Y-11248834D01*
X27338590Y-11248834D02*
X27376685Y-11248834D01*
X27376685Y-11248834D02*
X27395732Y-11239310D01*
X27395732Y-11239310D02*
X27405256Y-11220262D01*
X27405256Y-11220262D02*
X27405256Y-11210738D01*
X27405256Y-11210738D02*
X27395732Y-11191691D01*
X27395732Y-11191691D02*
X27376685Y-11182167D01*
X27376685Y-11182167D02*
X27348113Y-11182167D01*
X27348113Y-11182167D02*
X27329066Y-11172643D01*
X27329066Y-11172643D02*
X27319542Y-11153596D01*
X27319542Y-11153596D02*
X27319542Y-11144072D01*
X27319542Y-11144072D02*
X27329066Y-11125024D01*
X27329066Y-11125024D02*
X27348113Y-11115500D01*
X27348113Y-11115500D02*
X27376685Y-11115500D01*
X27376685Y-11115500D02*
X27395732Y-11125024D01*
X27471923Y-11325024D02*
X27481447Y-11315500D01*
X27481447Y-11315500D02*
X27500494Y-11286929D01*
X27500494Y-11286929D02*
X27510018Y-11267881D01*
X27510018Y-11267881D02*
X27519542Y-11239310D01*
X27519542Y-11239310D02*
X27529066Y-11191691D01*
X27529066Y-11191691D02*
X27529066Y-11153596D01*
X27529066Y-11153596D02*
X27519542Y-11105977D01*
X27519542Y-11105977D02*
X27510018Y-11077405D01*
X27510018Y-11077405D02*
X27500494Y-11058358D01*
X27500494Y-11058358D02*
X27481447Y-11029786D01*
X27481447Y-11029786D02*
X27471923Y-11020262D01*
D13*
X22646860Y-11371350D02*
X22646860Y-11471350D01*
X22596860Y-11421350D02*
X22696860Y-11421350D01*
D12*
X23062399Y-11512834D02*
X22948113Y-11512834D01*
X23005256Y-11512834D02*
X23005256Y-11312834D01*
X23005256Y-11312834D02*
X22986208Y-11341405D01*
X22986208Y-11341405D02*
X22967161Y-11360453D01*
X22967161Y-11360453D02*
X22948113Y-11369977D01*
X23148113Y-11493786D02*
X23157637Y-11503310D01*
X23157637Y-11503310D02*
X23148113Y-11512834D01*
X23148113Y-11512834D02*
X23138589Y-11503310D01*
X23138589Y-11503310D02*
X23148113Y-11493786D01*
X23148113Y-11493786D02*
X23148113Y-11512834D01*
X23281446Y-11312834D02*
X23300494Y-11312834D01*
X23300494Y-11312834D02*
X23319542Y-11322358D01*
X23319542Y-11322358D02*
X23329065Y-11331881D01*
X23329065Y-11331881D02*
X23338589Y-11350929D01*
X23338589Y-11350929D02*
X23348113Y-11389024D01*
X23348113Y-11389024D02*
X23348113Y-11436643D01*
X23348113Y-11436643D02*
X23338589Y-11474738D01*
X23338589Y-11474738D02*
X23329065Y-11493786D01*
X23329065Y-11493786D02*
X23319542Y-11503310D01*
X23319542Y-11503310D02*
X23300494Y-11512834D01*
X23300494Y-11512834D02*
X23281446Y-11512834D01*
X23281446Y-11512834D02*
X23262399Y-11503310D01*
X23262399Y-11503310D02*
X23252875Y-11493786D01*
X23252875Y-11493786D02*
X23243351Y-11474738D01*
X23243351Y-11474738D02*
X23233827Y-11436643D01*
X23233827Y-11436643D02*
X23233827Y-11389024D01*
X23233827Y-11389024D02*
X23243351Y-11350929D01*
X23243351Y-11350929D02*
X23252875Y-11331881D01*
X23252875Y-11331881D02*
X23262399Y-11322358D01*
X23262399Y-11322358D02*
X23281446Y-11312834D01*
X23471922Y-11312834D02*
X23490970Y-11312834D01*
X23490970Y-11312834D02*
X23510018Y-11322358D01*
X23510018Y-11322358D02*
X23519542Y-11331881D01*
X23519542Y-11331881D02*
X23529065Y-11350929D01*
X23529065Y-11350929D02*
X23538589Y-11389024D01*
X23538589Y-11389024D02*
X23538589Y-11436643D01*
X23538589Y-11436643D02*
X23529065Y-11474738D01*
X23529065Y-11474738D02*
X23519542Y-11493786D01*
X23519542Y-11493786D02*
X23510018Y-11503310D01*
X23510018Y-11503310D02*
X23490970Y-11512834D01*
X23490970Y-11512834D02*
X23471922Y-11512834D01*
X23471922Y-11512834D02*
X23452875Y-11503310D01*
X23452875Y-11503310D02*
X23443351Y-11493786D01*
X23443351Y-11493786D02*
X23433827Y-11474738D01*
X23433827Y-11474738D02*
X23424303Y-11436643D01*
X23424303Y-11436643D02*
X23424303Y-11389024D01*
X23424303Y-11389024D02*
X23433827Y-11350929D01*
X23433827Y-11350929D02*
X23443351Y-11331881D01*
X23443351Y-11331881D02*
X23452875Y-11322358D01*
X23452875Y-11322358D02*
X23471922Y-11312834D01*
X23662399Y-11312834D02*
X23681446Y-11312834D01*
X23681446Y-11312834D02*
X23700494Y-11322358D01*
X23700494Y-11322358D02*
X23710018Y-11331881D01*
X23710018Y-11331881D02*
X23719542Y-11350929D01*
X23719542Y-11350929D02*
X23729065Y-11389024D01*
X23729065Y-11389024D02*
X23729065Y-11436643D01*
X23729065Y-11436643D02*
X23719542Y-11474738D01*
X23719542Y-11474738D02*
X23710018Y-11493786D01*
X23710018Y-11493786D02*
X23700494Y-11503310D01*
X23700494Y-11503310D02*
X23681446Y-11512834D01*
X23681446Y-11512834D02*
X23662399Y-11512834D01*
X23662399Y-11512834D02*
X23643351Y-11503310D01*
X23643351Y-11503310D02*
X23633827Y-11493786D01*
X23633827Y-11493786D02*
X23624303Y-11474738D01*
X23624303Y-11474738D02*
X23614780Y-11436643D01*
X23614780Y-11436643D02*
X23614780Y-11389024D01*
X23614780Y-11389024D02*
X23624303Y-11350929D01*
X23624303Y-11350929D02*
X23633827Y-11331881D01*
X23633827Y-11331881D02*
X23643351Y-11322358D01*
X23643351Y-11322358D02*
X23662399Y-11312834D01*
X23814780Y-11512834D02*
X23814780Y-11379500D01*
X23814780Y-11398548D02*
X23824303Y-11389024D01*
X23824303Y-11389024D02*
X23843351Y-11379500D01*
X23843351Y-11379500D02*
X23871923Y-11379500D01*
X23871923Y-11379500D02*
X23890970Y-11389024D01*
X23890970Y-11389024D02*
X23900494Y-11408072D01*
X23900494Y-11408072D02*
X23900494Y-11512834D01*
X23900494Y-11408072D02*
X23910018Y-11389024D01*
X23910018Y-11389024D02*
X23929065Y-11379500D01*
X23929065Y-11379500D02*
X23957637Y-11379500D01*
X23957637Y-11379500D02*
X23976684Y-11389024D01*
X23976684Y-11389024D02*
X23986208Y-11408072D01*
X23986208Y-11408072D02*
X23986208Y-11512834D01*
X24081446Y-11512834D02*
X24081446Y-11379500D01*
X24081446Y-11398548D02*
X24090970Y-11389024D01*
X24090970Y-11389024D02*
X24110018Y-11379500D01*
X24110018Y-11379500D02*
X24138589Y-11379500D01*
X24138589Y-11379500D02*
X24157637Y-11389024D01*
X24157637Y-11389024D02*
X24167161Y-11408072D01*
X24167161Y-11408072D02*
X24167161Y-11512834D01*
X24167161Y-11408072D02*
X24176684Y-11389024D01*
X24176684Y-11389024D02*
X24195732Y-11379500D01*
X24195732Y-11379500D02*
X24224303Y-11379500D01*
X24224303Y-11379500D02*
X24243351Y-11389024D01*
X24243351Y-11389024D02*
X24252875Y-11408072D01*
X24252875Y-11408072D02*
X24252875Y-11512834D01*
X24643351Y-11303310D02*
X24471923Y-11560453D01*
X24900494Y-11312834D02*
X24919542Y-11312834D01*
X24919542Y-11312834D02*
X24938589Y-11322358D01*
X24938589Y-11322358D02*
X24948113Y-11331881D01*
X24948113Y-11331881D02*
X24957637Y-11350929D01*
X24957637Y-11350929D02*
X24967161Y-11389024D01*
X24967161Y-11389024D02*
X24967161Y-11436643D01*
X24967161Y-11436643D02*
X24957637Y-11474738D01*
X24957637Y-11474738D02*
X24948113Y-11493786D01*
X24948113Y-11493786D02*
X24938589Y-11503310D01*
X24938589Y-11503310D02*
X24919542Y-11512834D01*
X24919542Y-11512834D02*
X24900494Y-11512834D01*
X24900494Y-11512834D02*
X24881446Y-11503310D01*
X24881446Y-11503310D02*
X24871923Y-11493786D01*
X24871923Y-11493786D02*
X24862399Y-11474738D01*
X24862399Y-11474738D02*
X24852875Y-11436643D01*
X24852875Y-11436643D02*
X24852875Y-11389024D01*
X24852875Y-11389024D02*
X24862399Y-11350929D01*
X24862399Y-11350929D02*
X24871923Y-11331881D01*
X24871923Y-11331881D02*
X24881446Y-11322358D01*
X24881446Y-11322358D02*
X24900494Y-11312834D01*
X25052875Y-11493786D02*
X25062399Y-11503310D01*
X25062399Y-11503310D02*
X25052875Y-11512834D01*
X25052875Y-11512834D02*
X25043351Y-11503310D01*
X25043351Y-11503310D02*
X25052875Y-11493786D01*
X25052875Y-11493786D02*
X25052875Y-11512834D01*
X25186208Y-11312834D02*
X25205256Y-11312834D01*
X25205256Y-11312834D02*
X25224304Y-11322358D01*
X25224304Y-11322358D02*
X25233827Y-11331881D01*
X25233827Y-11331881D02*
X25243351Y-11350929D01*
X25243351Y-11350929D02*
X25252875Y-11389024D01*
X25252875Y-11389024D02*
X25252875Y-11436643D01*
X25252875Y-11436643D02*
X25243351Y-11474738D01*
X25243351Y-11474738D02*
X25233827Y-11493786D01*
X25233827Y-11493786D02*
X25224304Y-11503310D01*
X25224304Y-11503310D02*
X25205256Y-11512834D01*
X25205256Y-11512834D02*
X25186208Y-11512834D01*
X25186208Y-11512834D02*
X25167161Y-11503310D01*
X25167161Y-11503310D02*
X25157637Y-11493786D01*
X25157637Y-11493786D02*
X25148113Y-11474738D01*
X25148113Y-11474738D02*
X25138589Y-11436643D01*
X25138589Y-11436643D02*
X25138589Y-11389024D01*
X25138589Y-11389024D02*
X25148113Y-11350929D01*
X25148113Y-11350929D02*
X25157637Y-11331881D01*
X25157637Y-11331881D02*
X25167161Y-11322358D01*
X25167161Y-11322358D02*
X25186208Y-11312834D01*
X25319542Y-11312834D02*
X25443351Y-11312834D01*
X25443351Y-11312834D02*
X25376685Y-11389024D01*
X25376685Y-11389024D02*
X25405256Y-11389024D01*
X25405256Y-11389024D02*
X25424304Y-11398548D01*
X25424304Y-11398548D02*
X25433827Y-11408072D01*
X25433827Y-11408072D02*
X25443351Y-11427119D01*
X25443351Y-11427119D02*
X25443351Y-11474738D01*
X25443351Y-11474738D02*
X25433827Y-11493786D01*
X25433827Y-11493786D02*
X25424304Y-11503310D01*
X25424304Y-11503310D02*
X25405256Y-11512834D01*
X25405256Y-11512834D02*
X25348113Y-11512834D01*
X25348113Y-11512834D02*
X25329066Y-11503310D01*
X25329066Y-11503310D02*
X25319542Y-11493786D01*
X25538589Y-11512834D02*
X25576685Y-11512834D01*
X25576685Y-11512834D02*
X25595732Y-11503310D01*
X25595732Y-11503310D02*
X25605256Y-11493786D01*
X25605256Y-11493786D02*
X25624304Y-11465215D01*
X25624304Y-11465215D02*
X25633827Y-11427119D01*
X25633827Y-11427119D02*
X25633827Y-11350929D01*
X25633827Y-11350929D02*
X25624304Y-11331881D01*
X25624304Y-11331881D02*
X25614780Y-11322358D01*
X25614780Y-11322358D02*
X25595732Y-11312834D01*
X25595732Y-11312834D02*
X25557637Y-11312834D01*
X25557637Y-11312834D02*
X25538589Y-11322358D01*
X25538589Y-11322358D02*
X25529066Y-11331881D01*
X25529066Y-11331881D02*
X25519542Y-11350929D01*
X25519542Y-11350929D02*
X25519542Y-11398548D01*
X25519542Y-11398548D02*
X25529066Y-11417596D01*
X25529066Y-11417596D02*
X25538589Y-11427119D01*
X25538589Y-11427119D02*
X25557637Y-11436643D01*
X25557637Y-11436643D02*
X25595732Y-11436643D01*
X25595732Y-11436643D02*
X25614780Y-11427119D01*
X25614780Y-11427119D02*
X25624304Y-11417596D01*
X25624304Y-11417596D02*
X25633827Y-11398548D01*
X25805256Y-11379500D02*
X25805256Y-11512834D01*
X25757637Y-11303310D02*
X25710018Y-11446167D01*
X25710018Y-11446167D02*
X25833827Y-11446167D01*
X25900494Y-11312834D02*
X25900494Y-11350929D01*
X25976685Y-11312834D02*
X25976685Y-11350929D01*
X26271923Y-11589024D02*
X26262399Y-11579500D01*
X26262399Y-11579500D02*
X26243351Y-11550929D01*
X26243351Y-11550929D02*
X26233828Y-11531881D01*
X26233828Y-11531881D02*
X26224304Y-11503310D01*
X26224304Y-11503310D02*
X26214780Y-11455691D01*
X26214780Y-11455691D02*
X26214780Y-11417596D01*
X26214780Y-11417596D02*
X26224304Y-11369977D01*
X26224304Y-11369977D02*
X26233828Y-11341405D01*
X26233828Y-11341405D02*
X26243351Y-11322358D01*
X26243351Y-11322358D02*
X26262399Y-11293786D01*
X26262399Y-11293786D02*
X26271923Y-11284262D01*
X26338589Y-11331881D02*
X26348113Y-11322358D01*
X26348113Y-11322358D02*
X26367161Y-11312834D01*
X26367161Y-11312834D02*
X26414780Y-11312834D01*
X26414780Y-11312834D02*
X26433828Y-11322358D01*
X26433828Y-11322358D02*
X26443351Y-11331881D01*
X26443351Y-11331881D02*
X26452875Y-11350929D01*
X26452875Y-11350929D02*
X26452875Y-11369977D01*
X26452875Y-11369977D02*
X26443351Y-11398548D01*
X26443351Y-11398548D02*
X26329066Y-11512834D01*
X26329066Y-11512834D02*
X26452875Y-11512834D01*
X26624304Y-11379500D02*
X26624304Y-11512834D01*
X26576685Y-11303310D02*
X26529066Y-11446167D01*
X26529066Y-11446167D02*
X26652875Y-11446167D01*
X26881447Y-11512834D02*
X26881447Y-11312834D01*
X26967161Y-11512834D02*
X26967161Y-11408072D01*
X26967161Y-11408072D02*
X26957637Y-11389024D01*
X26957637Y-11389024D02*
X26938590Y-11379500D01*
X26938590Y-11379500D02*
X26910018Y-11379500D01*
X26910018Y-11379500D02*
X26890970Y-11389024D01*
X26890970Y-11389024D02*
X26881447Y-11398548D01*
X27090970Y-11512834D02*
X27071923Y-11503310D01*
X27071923Y-11503310D02*
X27062399Y-11493786D01*
X27062399Y-11493786D02*
X27052875Y-11474738D01*
X27052875Y-11474738D02*
X27052875Y-11417596D01*
X27052875Y-11417596D02*
X27062399Y-11398548D01*
X27062399Y-11398548D02*
X27071923Y-11389024D01*
X27071923Y-11389024D02*
X27090970Y-11379500D01*
X27090970Y-11379500D02*
X27119542Y-11379500D01*
X27119542Y-11379500D02*
X27138590Y-11389024D01*
X27138590Y-11389024D02*
X27148113Y-11398548D01*
X27148113Y-11398548D02*
X27157637Y-11417596D01*
X27157637Y-11417596D02*
X27157637Y-11474738D01*
X27157637Y-11474738D02*
X27148113Y-11493786D01*
X27148113Y-11493786D02*
X27138590Y-11503310D01*
X27138590Y-11503310D02*
X27119542Y-11512834D01*
X27119542Y-11512834D02*
X27090970Y-11512834D01*
X27271923Y-11512834D02*
X27252875Y-11503310D01*
X27252875Y-11503310D02*
X27243351Y-11484262D01*
X27243351Y-11484262D02*
X27243351Y-11312834D01*
X27424304Y-11503310D02*
X27405256Y-11512834D01*
X27405256Y-11512834D02*
X27367161Y-11512834D01*
X27367161Y-11512834D02*
X27348113Y-11503310D01*
X27348113Y-11503310D02*
X27338590Y-11484262D01*
X27338590Y-11484262D02*
X27338590Y-11408072D01*
X27338590Y-11408072D02*
X27348113Y-11389024D01*
X27348113Y-11389024D02*
X27367161Y-11379500D01*
X27367161Y-11379500D02*
X27405256Y-11379500D01*
X27405256Y-11379500D02*
X27424304Y-11389024D01*
X27424304Y-11389024D02*
X27433828Y-11408072D01*
X27433828Y-11408072D02*
X27433828Y-11427119D01*
X27433828Y-11427119D02*
X27338590Y-11446167D01*
X27510018Y-11503310D02*
X27529066Y-11512834D01*
X27529066Y-11512834D02*
X27567161Y-11512834D01*
X27567161Y-11512834D02*
X27586209Y-11503310D01*
X27586209Y-11503310D02*
X27595732Y-11484262D01*
X27595732Y-11484262D02*
X27595732Y-11474738D01*
X27595732Y-11474738D02*
X27586209Y-11455691D01*
X27586209Y-11455691D02*
X27567161Y-11446167D01*
X27567161Y-11446167D02*
X27538590Y-11446167D01*
X27538590Y-11446167D02*
X27519542Y-11436643D01*
X27519542Y-11436643D02*
X27510018Y-11417596D01*
X27510018Y-11417596D02*
X27510018Y-11408072D01*
X27510018Y-11408072D02*
X27519542Y-11389024D01*
X27519542Y-11389024D02*
X27538590Y-11379500D01*
X27538590Y-11379500D02*
X27567161Y-11379500D01*
X27567161Y-11379500D02*
X27586209Y-11389024D01*
X27833828Y-11436643D02*
X27986209Y-11436643D01*
X27910018Y-11512834D02*
X27910018Y-11360453D01*
X28214780Y-11312834D02*
X28338590Y-11312834D01*
X28338590Y-11312834D02*
X28271923Y-11389024D01*
X28271923Y-11389024D02*
X28300494Y-11389024D01*
X28300494Y-11389024D02*
X28319542Y-11398548D01*
X28319542Y-11398548D02*
X28329066Y-11408072D01*
X28329066Y-11408072D02*
X28338590Y-11427119D01*
X28338590Y-11427119D02*
X28338590Y-11474738D01*
X28338590Y-11474738D02*
X28329066Y-11493786D01*
X28329066Y-11493786D02*
X28319542Y-11503310D01*
X28319542Y-11503310D02*
X28300494Y-11512834D01*
X28300494Y-11512834D02*
X28243352Y-11512834D01*
X28243352Y-11512834D02*
X28224304Y-11503310D01*
X28224304Y-11503310D02*
X28214780Y-11493786D01*
X28567161Y-11503310D02*
X28586209Y-11512834D01*
X28586209Y-11512834D02*
X28624304Y-11512834D01*
X28624304Y-11512834D02*
X28643352Y-11503310D01*
X28643352Y-11503310D02*
X28652875Y-11484262D01*
X28652875Y-11484262D02*
X28652875Y-11474738D01*
X28652875Y-11474738D02*
X28643352Y-11455691D01*
X28643352Y-11455691D02*
X28624304Y-11446167D01*
X28624304Y-11446167D02*
X28595733Y-11446167D01*
X28595733Y-11446167D02*
X28576685Y-11436643D01*
X28576685Y-11436643D02*
X28567161Y-11417596D01*
X28567161Y-11417596D02*
X28567161Y-11408072D01*
X28567161Y-11408072D02*
X28576685Y-11389024D01*
X28576685Y-11389024D02*
X28595733Y-11379500D01*
X28595733Y-11379500D02*
X28624304Y-11379500D01*
X28624304Y-11379500D02*
X28643352Y-11389024D01*
X28767161Y-11512834D02*
X28748114Y-11503310D01*
X28748114Y-11503310D02*
X28738590Y-11484262D01*
X28738590Y-11484262D02*
X28738590Y-11312834D01*
X28871923Y-11512834D02*
X28852875Y-11503310D01*
X28852875Y-11503310D02*
X28843352Y-11493786D01*
X28843352Y-11493786D02*
X28833828Y-11474738D01*
X28833828Y-11474738D02*
X28833828Y-11417596D01*
X28833828Y-11417596D02*
X28843352Y-11398548D01*
X28843352Y-11398548D02*
X28852875Y-11389024D01*
X28852875Y-11389024D02*
X28871923Y-11379500D01*
X28871923Y-11379500D02*
X28900495Y-11379500D01*
X28900495Y-11379500D02*
X28919542Y-11389024D01*
X28919542Y-11389024D02*
X28929066Y-11398548D01*
X28929066Y-11398548D02*
X28938590Y-11417596D01*
X28938590Y-11417596D02*
X28938590Y-11474738D01*
X28938590Y-11474738D02*
X28929066Y-11493786D01*
X28929066Y-11493786D02*
X28919542Y-11503310D01*
X28919542Y-11503310D02*
X28900495Y-11512834D01*
X28900495Y-11512834D02*
X28871923Y-11512834D01*
X28995733Y-11379500D02*
X29071923Y-11379500D01*
X29024304Y-11312834D02*
X29024304Y-11484262D01*
X29024304Y-11484262D02*
X29033828Y-11503310D01*
X29033828Y-11503310D02*
X29052875Y-11512834D01*
X29052875Y-11512834D02*
X29071923Y-11512834D01*
X29129066Y-11503310D02*
X29148114Y-11512834D01*
X29148114Y-11512834D02*
X29186209Y-11512834D01*
X29186209Y-11512834D02*
X29205256Y-11503310D01*
X29205256Y-11503310D02*
X29214780Y-11484262D01*
X29214780Y-11484262D02*
X29214780Y-11474738D01*
X29214780Y-11474738D02*
X29205256Y-11455691D01*
X29205256Y-11455691D02*
X29186209Y-11446167D01*
X29186209Y-11446167D02*
X29157637Y-11446167D01*
X29157637Y-11446167D02*
X29138590Y-11436643D01*
X29138590Y-11436643D02*
X29129066Y-11417596D01*
X29129066Y-11417596D02*
X29129066Y-11408072D01*
X29129066Y-11408072D02*
X29138590Y-11389024D01*
X29138590Y-11389024D02*
X29157637Y-11379500D01*
X29157637Y-11379500D02*
X29186209Y-11379500D01*
X29186209Y-11379500D02*
X29205256Y-11389024D01*
X29281447Y-11589024D02*
X29290971Y-11579500D01*
X29290971Y-11579500D02*
X29310018Y-11550929D01*
X29310018Y-11550929D02*
X29319542Y-11531881D01*
X29319542Y-11531881D02*
X29329066Y-11503310D01*
X29329066Y-11503310D02*
X29338590Y-11455691D01*
X29338590Y-11455691D02*
X29338590Y-11417596D01*
X29338590Y-11417596D02*
X29329066Y-11369977D01*
X29329066Y-11369977D02*
X29319542Y-11341405D01*
X29319542Y-11341405D02*
X29310018Y-11322358D01*
X29310018Y-11322358D02*
X29290971Y-11293786D01*
X29290971Y-11293786D02*
X29281447Y-11284262D01*
D14*
X22677822Y-11731312D02*
X22677822Y-11639388D01*
X22585898Y-11639388D01*
X22585898Y-11731312D01*
X22677822Y-11731312D01*
D12*
X23062399Y-11776834D02*
X22948113Y-11776834D01*
X23005256Y-11776834D02*
X23005256Y-11576834D01*
X23005256Y-11576834D02*
X22986208Y-11605405D01*
X22986208Y-11605405D02*
X22967161Y-11624453D01*
X22967161Y-11624453D02*
X22948113Y-11633977D01*
X23148113Y-11757786D02*
X23157637Y-11767310D01*
X23157637Y-11767310D02*
X23148113Y-11776834D01*
X23148113Y-11776834D02*
X23138589Y-11767310D01*
X23138589Y-11767310D02*
X23148113Y-11757786D01*
X23148113Y-11757786D02*
X23148113Y-11776834D01*
X23224303Y-11576834D02*
X23348113Y-11576834D01*
X23348113Y-11576834D02*
X23281446Y-11653024D01*
X23281446Y-11653024D02*
X23310018Y-11653024D01*
X23310018Y-11653024D02*
X23329065Y-11662548D01*
X23329065Y-11662548D02*
X23338589Y-11672072D01*
X23338589Y-11672072D02*
X23348113Y-11691119D01*
X23348113Y-11691119D02*
X23348113Y-11738738D01*
X23348113Y-11738738D02*
X23338589Y-11757786D01*
X23338589Y-11757786D02*
X23329065Y-11767310D01*
X23329065Y-11767310D02*
X23310018Y-11776834D01*
X23310018Y-11776834D02*
X23252875Y-11776834D01*
X23252875Y-11776834D02*
X23233827Y-11767310D01*
X23233827Y-11767310D02*
X23224303Y-11757786D01*
X23471922Y-11576834D02*
X23490970Y-11576834D01*
X23490970Y-11576834D02*
X23510018Y-11586358D01*
X23510018Y-11586358D02*
X23519542Y-11595881D01*
X23519542Y-11595881D02*
X23529065Y-11614929D01*
X23529065Y-11614929D02*
X23538589Y-11653024D01*
X23538589Y-11653024D02*
X23538589Y-11700643D01*
X23538589Y-11700643D02*
X23529065Y-11738738D01*
X23529065Y-11738738D02*
X23519542Y-11757786D01*
X23519542Y-11757786D02*
X23510018Y-11767310D01*
X23510018Y-11767310D02*
X23490970Y-11776834D01*
X23490970Y-11776834D02*
X23471922Y-11776834D01*
X23471922Y-11776834D02*
X23452875Y-11767310D01*
X23452875Y-11767310D02*
X23443351Y-11757786D01*
X23443351Y-11757786D02*
X23433827Y-11738738D01*
X23433827Y-11738738D02*
X23424303Y-11700643D01*
X23424303Y-11700643D02*
X23424303Y-11653024D01*
X23424303Y-11653024D02*
X23433827Y-11614929D01*
X23433827Y-11614929D02*
X23443351Y-11595881D01*
X23443351Y-11595881D02*
X23452875Y-11586358D01*
X23452875Y-11586358D02*
X23471922Y-11576834D01*
X23662399Y-11576834D02*
X23681446Y-11576834D01*
X23681446Y-11576834D02*
X23700494Y-11586358D01*
X23700494Y-11586358D02*
X23710018Y-11595881D01*
X23710018Y-11595881D02*
X23719542Y-11614929D01*
X23719542Y-11614929D02*
X23729065Y-11653024D01*
X23729065Y-11653024D02*
X23729065Y-11700643D01*
X23729065Y-11700643D02*
X23719542Y-11738738D01*
X23719542Y-11738738D02*
X23710018Y-11757786D01*
X23710018Y-11757786D02*
X23700494Y-11767310D01*
X23700494Y-11767310D02*
X23681446Y-11776834D01*
X23681446Y-11776834D02*
X23662399Y-11776834D01*
X23662399Y-11776834D02*
X23643351Y-11767310D01*
X23643351Y-11767310D02*
X23633827Y-11757786D01*
X23633827Y-11757786D02*
X23624303Y-11738738D01*
X23624303Y-11738738D02*
X23614780Y-11700643D01*
X23614780Y-11700643D02*
X23614780Y-11653024D01*
X23614780Y-11653024D02*
X23624303Y-11614929D01*
X23624303Y-11614929D02*
X23633827Y-11595881D01*
X23633827Y-11595881D02*
X23643351Y-11586358D01*
X23643351Y-11586358D02*
X23662399Y-11576834D01*
X23814780Y-11776834D02*
X23814780Y-11643500D01*
X23814780Y-11662548D02*
X23824303Y-11653024D01*
X23824303Y-11653024D02*
X23843351Y-11643500D01*
X23843351Y-11643500D02*
X23871923Y-11643500D01*
X23871923Y-11643500D02*
X23890970Y-11653024D01*
X23890970Y-11653024D02*
X23900494Y-11672072D01*
X23900494Y-11672072D02*
X23900494Y-11776834D01*
X23900494Y-11672072D02*
X23910018Y-11653024D01*
X23910018Y-11653024D02*
X23929065Y-11643500D01*
X23929065Y-11643500D02*
X23957637Y-11643500D01*
X23957637Y-11643500D02*
X23976684Y-11653024D01*
X23976684Y-11653024D02*
X23986208Y-11672072D01*
X23986208Y-11672072D02*
X23986208Y-11776834D01*
X24081446Y-11776834D02*
X24081446Y-11643500D01*
X24081446Y-11662548D02*
X24090970Y-11653024D01*
X24090970Y-11653024D02*
X24110018Y-11643500D01*
X24110018Y-11643500D02*
X24138589Y-11643500D01*
X24138589Y-11643500D02*
X24157637Y-11653024D01*
X24157637Y-11653024D02*
X24167161Y-11672072D01*
X24167161Y-11672072D02*
X24167161Y-11776834D01*
X24167161Y-11672072D02*
X24176684Y-11653024D01*
X24176684Y-11653024D02*
X24195732Y-11643500D01*
X24195732Y-11643500D02*
X24224303Y-11643500D01*
X24224303Y-11643500D02*
X24243351Y-11653024D01*
X24243351Y-11653024D02*
X24252875Y-11672072D01*
X24252875Y-11672072D02*
X24252875Y-11776834D01*
X24643351Y-11567310D02*
X24471923Y-11824453D01*
X24900494Y-11576834D02*
X24919542Y-11576834D01*
X24919542Y-11576834D02*
X24938589Y-11586358D01*
X24938589Y-11586358D02*
X24948113Y-11595881D01*
X24948113Y-11595881D02*
X24957637Y-11614929D01*
X24957637Y-11614929D02*
X24967161Y-11653024D01*
X24967161Y-11653024D02*
X24967161Y-11700643D01*
X24967161Y-11700643D02*
X24957637Y-11738738D01*
X24957637Y-11738738D02*
X24948113Y-11757786D01*
X24948113Y-11757786D02*
X24938589Y-11767310D01*
X24938589Y-11767310D02*
X24919542Y-11776834D01*
X24919542Y-11776834D02*
X24900494Y-11776834D01*
X24900494Y-11776834D02*
X24881446Y-11767310D01*
X24881446Y-11767310D02*
X24871923Y-11757786D01*
X24871923Y-11757786D02*
X24862399Y-11738738D01*
X24862399Y-11738738D02*
X24852875Y-11700643D01*
X24852875Y-11700643D02*
X24852875Y-11653024D01*
X24852875Y-11653024D02*
X24862399Y-11614929D01*
X24862399Y-11614929D02*
X24871923Y-11595881D01*
X24871923Y-11595881D02*
X24881446Y-11586358D01*
X24881446Y-11586358D02*
X24900494Y-11576834D01*
X25052875Y-11757786D02*
X25062399Y-11767310D01*
X25062399Y-11767310D02*
X25052875Y-11776834D01*
X25052875Y-11776834D02*
X25043351Y-11767310D01*
X25043351Y-11767310D02*
X25052875Y-11757786D01*
X25052875Y-11757786D02*
X25052875Y-11776834D01*
X25186208Y-11576834D02*
X25205256Y-11576834D01*
X25205256Y-11576834D02*
X25224304Y-11586358D01*
X25224304Y-11586358D02*
X25233827Y-11595881D01*
X25233827Y-11595881D02*
X25243351Y-11614929D01*
X25243351Y-11614929D02*
X25252875Y-11653024D01*
X25252875Y-11653024D02*
X25252875Y-11700643D01*
X25252875Y-11700643D02*
X25243351Y-11738738D01*
X25243351Y-11738738D02*
X25233827Y-11757786D01*
X25233827Y-11757786D02*
X25224304Y-11767310D01*
X25224304Y-11767310D02*
X25205256Y-11776834D01*
X25205256Y-11776834D02*
X25186208Y-11776834D01*
X25186208Y-11776834D02*
X25167161Y-11767310D01*
X25167161Y-11767310D02*
X25157637Y-11757786D01*
X25157637Y-11757786D02*
X25148113Y-11738738D01*
X25148113Y-11738738D02*
X25138589Y-11700643D01*
X25138589Y-11700643D02*
X25138589Y-11653024D01*
X25138589Y-11653024D02*
X25148113Y-11614929D01*
X25148113Y-11614929D02*
X25157637Y-11595881D01*
X25157637Y-11595881D02*
X25167161Y-11586358D01*
X25167161Y-11586358D02*
X25186208Y-11576834D01*
X25433827Y-11576834D02*
X25338589Y-11576834D01*
X25338589Y-11576834D02*
X25329066Y-11672072D01*
X25329066Y-11672072D02*
X25338589Y-11662548D01*
X25338589Y-11662548D02*
X25357637Y-11653024D01*
X25357637Y-11653024D02*
X25405256Y-11653024D01*
X25405256Y-11653024D02*
X25424304Y-11662548D01*
X25424304Y-11662548D02*
X25433827Y-11672072D01*
X25433827Y-11672072D02*
X25443351Y-11691119D01*
X25443351Y-11691119D02*
X25443351Y-11738738D01*
X25443351Y-11738738D02*
X25433827Y-11757786D01*
X25433827Y-11757786D02*
X25424304Y-11767310D01*
X25424304Y-11767310D02*
X25405256Y-11776834D01*
X25405256Y-11776834D02*
X25357637Y-11776834D01*
X25357637Y-11776834D02*
X25338589Y-11767310D01*
X25338589Y-11767310D02*
X25329066Y-11757786D01*
X25633827Y-11776834D02*
X25519542Y-11776834D01*
X25576685Y-11776834D02*
X25576685Y-11576834D01*
X25576685Y-11576834D02*
X25557637Y-11605405D01*
X25557637Y-11605405D02*
X25538589Y-11624453D01*
X25538589Y-11624453D02*
X25519542Y-11633977D01*
X25710018Y-11595881D02*
X25719542Y-11586358D01*
X25719542Y-11586358D02*
X25738589Y-11576834D01*
X25738589Y-11576834D02*
X25786208Y-11576834D01*
X25786208Y-11576834D02*
X25805256Y-11586358D01*
X25805256Y-11586358D02*
X25814780Y-11595881D01*
X25814780Y-11595881D02*
X25824304Y-11614929D01*
X25824304Y-11614929D02*
X25824304Y-11633977D01*
X25824304Y-11633977D02*
X25814780Y-11662548D01*
X25814780Y-11662548D02*
X25700494Y-11776834D01*
X25700494Y-11776834D02*
X25824304Y-11776834D01*
X25900494Y-11576834D02*
X25900494Y-11614929D01*
X25976685Y-11576834D02*
X25976685Y-11614929D01*
X26271923Y-11853024D02*
X26262399Y-11843500D01*
X26262399Y-11843500D02*
X26243351Y-11814929D01*
X26243351Y-11814929D02*
X26233828Y-11795881D01*
X26233828Y-11795881D02*
X26224304Y-11767310D01*
X26224304Y-11767310D02*
X26214780Y-11719691D01*
X26214780Y-11719691D02*
X26214780Y-11681596D01*
X26214780Y-11681596D02*
X26224304Y-11633977D01*
X26224304Y-11633977D02*
X26233828Y-11605405D01*
X26233828Y-11605405D02*
X26243351Y-11586358D01*
X26243351Y-11586358D02*
X26262399Y-11557786D01*
X26262399Y-11557786D02*
X26271923Y-11548262D01*
X26452875Y-11776834D02*
X26338589Y-11776834D01*
X26395732Y-11776834D02*
X26395732Y-11576834D01*
X26395732Y-11576834D02*
X26376685Y-11605405D01*
X26376685Y-11605405D02*
X26357637Y-11624453D01*
X26357637Y-11624453D02*
X26338589Y-11633977D01*
X26681447Y-11767310D02*
X26700494Y-11776834D01*
X26700494Y-11776834D02*
X26738589Y-11776834D01*
X26738589Y-11776834D02*
X26757637Y-11767310D01*
X26757637Y-11767310D02*
X26767161Y-11748262D01*
X26767161Y-11748262D02*
X26767161Y-11738738D01*
X26767161Y-11738738D02*
X26757637Y-11719691D01*
X26757637Y-11719691D02*
X26738589Y-11710167D01*
X26738589Y-11710167D02*
X26710018Y-11710167D01*
X26710018Y-11710167D02*
X26690970Y-11700643D01*
X26690970Y-11700643D02*
X26681447Y-11681596D01*
X26681447Y-11681596D02*
X26681447Y-11672072D01*
X26681447Y-11672072D02*
X26690970Y-11653024D01*
X26690970Y-11653024D02*
X26710018Y-11643500D01*
X26710018Y-11643500D02*
X26738589Y-11643500D01*
X26738589Y-11643500D02*
X26757637Y-11653024D01*
X26881447Y-11776834D02*
X26862399Y-11767310D01*
X26862399Y-11767310D02*
X26852875Y-11748262D01*
X26852875Y-11748262D02*
X26852875Y-11576834D01*
X26986209Y-11776834D02*
X26967161Y-11767310D01*
X26967161Y-11767310D02*
X26957637Y-11757786D01*
X26957637Y-11757786D02*
X26948113Y-11738738D01*
X26948113Y-11738738D02*
X26948113Y-11681596D01*
X26948113Y-11681596D02*
X26957637Y-11662548D01*
X26957637Y-11662548D02*
X26967161Y-11653024D01*
X26967161Y-11653024D02*
X26986209Y-11643500D01*
X26986209Y-11643500D02*
X27014780Y-11643500D01*
X27014780Y-11643500D02*
X27033828Y-11653024D01*
X27033828Y-11653024D02*
X27043351Y-11662548D01*
X27043351Y-11662548D02*
X27052875Y-11681596D01*
X27052875Y-11681596D02*
X27052875Y-11738738D01*
X27052875Y-11738738D02*
X27043351Y-11757786D01*
X27043351Y-11757786D02*
X27033828Y-11767310D01*
X27033828Y-11767310D02*
X27014780Y-11776834D01*
X27014780Y-11776834D02*
X26986209Y-11776834D01*
X27110018Y-11643500D02*
X27186209Y-11643500D01*
X27138590Y-11576834D02*
X27138590Y-11748262D01*
X27138590Y-11748262D02*
X27148113Y-11767310D01*
X27148113Y-11767310D02*
X27167161Y-11776834D01*
X27167161Y-11776834D02*
X27186209Y-11776834D01*
X27233828Y-11853024D02*
X27243351Y-11843500D01*
X27243351Y-11843500D02*
X27262399Y-11814929D01*
X27262399Y-11814929D02*
X27271923Y-11795881D01*
X27271923Y-11795881D02*
X27281447Y-11767310D01*
X27281447Y-11767310D02*
X27290970Y-11719691D01*
X27290970Y-11719691D02*
X27290970Y-11681596D01*
X27290970Y-11681596D02*
X27281447Y-11633977D01*
X27281447Y-11633977D02*
X27271923Y-11605405D01*
X27271923Y-11605405D02*
X27262399Y-11586358D01*
X27262399Y-11586358D02*
X27243351Y-11557786D01*
X27243351Y-11557786D02*
X27233828Y-11548262D01*
X22596860Y-12049350D02*
X22696860Y-11949350D01*
X22596860Y-11849350D01*
X22496860Y-11949350D01*
X22596860Y-12049350D01*
X22938589Y-11840834D02*
X23062399Y-11840834D01*
X23062399Y-11840834D02*
X22995732Y-11917024D01*
X22995732Y-11917024D02*
X23024303Y-11917024D01*
X23024303Y-11917024D02*
X23043351Y-11926548D01*
X23043351Y-11926548D02*
X23052875Y-11936072D01*
X23052875Y-11936072D02*
X23062399Y-11955119D01*
X23062399Y-11955119D02*
X23062399Y-12002738D01*
X23062399Y-12002738D02*
X23052875Y-12021786D01*
X23052875Y-12021786D02*
X23043351Y-12031310D01*
X23043351Y-12031310D02*
X23024303Y-12040834D01*
X23024303Y-12040834D02*
X22967161Y-12040834D01*
X22967161Y-12040834D02*
X22948113Y-12031310D01*
X22948113Y-12031310D02*
X22938589Y-12021786D01*
X23148113Y-12021786D02*
X23157637Y-12031310D01*
X23157637Y-12031310D02*
X23148113Y-12040834D01*
X23148113Y-12040834D02*
X23138589Y-12031310D01*
X23138589Y-12031310D02*
X23148113Y-12021786D01*
X23148113Y-12021786D02*
X23148113Y-12040834D01*
X23233827Y-11859881D02*
X23243351Y-11850358D01*
X23243351Y-11850358D02*
X23262399Y-11840834D01*
X23262399Y-11840834D02*
X23310018Y-11840834D01*
X23310018Y-11840834D02*
X23329065Y-11850358D01*
X23329065Y-11850358D02*
X23338589Y-11859881D01*
X23338589Y-11859881D02*
X23348113Y-11878929D01*
X23348113Y-11878929D02*
X23348113Y-11897977D01*
X23348113Y-11897977D02*
X23338589Y-11926548D01*
X23338589Y-11926548D02*
X23224303Y-12040834D01*
X23224303Y-12040834D02*
X23348113Y-12040834D01*
X23471922Y-11840834D02*
X23490970Y-11840834D01*
X23490970Y-11840834D02*
X23510018Y-11850358D01*
X23510018Y-11850358D02*
X23519542Y-11859881D01*
X23519542Y-11859881D02*
X23529065Y-11878929D01*
X23529065Y-11878929D02*
X23538589Y-11917024D01*
X23538589Y-11917024D02*
X23538589Y-11964643D01*
X23538589Y-11964643D02*
X23529065Y-12002738D01*
X23529065Y-12002738D02*
X23519542Y-12021786D01*
X23519542Y-12021786D02*
X23510018Y-12031310D01*
X23510018Y-12031310D02*
X23490970Y-12040834D01*
X23490970Y-12040834D02*
X23471922Y-12040834D01*
X23471922Y-12040834D02*
X23452875Y-12031310D01*
X23452875Y-12031310D02*
X23443351Y-12021786D01*
X23443351Y-12021786D02*
X23433827Y-12002738D01*
X23433827Y-12002738D02*
X23424303Y-11964643D01*
X23424303Y-11964643D02*
X23424303Y-11917024D01*
X23424303Y-11917024D02*
X23433827Y-11878929D01*
X23433827Y-11878929D02*
X23443351Y-11859881D01*
X23443351Y-11859881D02*
X23452875Y-11850358D01*
X23452875Y-11850358D02*
X23471922Y-11840834D01*
X23662399Y-11840834D02*
X23681446Y-11840834D01*
X23681446Y-11840834D02*
X23700494Y-11850358D01*
X23700494Y-11850358D02*
X23710018Y-11859881D01*
X23710018Y-11859881D02*
X23719542Y-11878929D01*
X23719542Y-11878929D02*
X23729065Y-11917024D01*
X23729065Y-11917024D02*
X23729065Y-11964643D01*
X23729065Y-11964643D02*
X23719542Y-12002738D01*
X23719542Y-12002738D02*
X23710018Y-12021786D01*
X23710018Y-12021786D02*
X23700494Y-12031310D01*
X23700494Y-12031310D02*
X23681446Y-12040834D01*
X23681446Y-12040834D02*
X23662399Y-12040834D01*
X23662399Y-12040834D02*
X23643351Y-12031310D01*
X23643351Y-12031310D02*
X23633827Y-12021786D01*
X23633827Y-12021786D02*
X23624303Y-12002738D01*
X23624303Y-12002738D02*
X23614780Y-11964643D01*
X23614780Y-11964643D02*
X23614780Y-11917024D01*
X23614780Y-11917024D02*
X23624303Y-11878929D01*
X23624303Y-11878929D02*
X23633827Y-11859881D01*
X23633827Y-11859881D02*
X23643351Y-11850358D01*
X23643351Y-11850358D02*
X23662399Y-11840834D01*
X23814780Y-12040834D02*
X23814780Y-11907500D01*
X23814780Y-11926548D02*
X23824303Y-11917024D01*
X23824303Y-11917024D02*
X23843351Y-11907500D01*
X23843351Y-11907500D02*
X23871923Y-11907500D01*
X23871923Y-11907500D02*
X23890970Y-11917024D01*
X23890970Y-11917024D02*
X23900494Y-11936072D01*
X23900494Y-11936072D02*
X23900494Y-12040834D01*
X23900494Y-11936072D02*
X23910018Y-11917024D01*
X23910018Y-11917024D02*
X23929065Y-11907500D01*
X23929065Y-11907500D02*
X23957637Y-11907500D01*
X23957637Y-11907500D02*
X23976684Y-11917024D01*
X23976684Y-11917024D02*
X23986208Y-11936072D01*
X23986208Y-11936072D02*
X23986208Y-12040834D01*
X24081446Y-12040834D02*
X24081446Y-11907500D01*
X24081446Y-11926548D02*
X24090970Y-11917024D01*
X24090970Y-11917024D02*
X24110018Y-11907500D01*
X24110018Y-11907500D02*
X24138589Y-11907500D01*
X24138589Y-11907500D02*
X24157637Y-11917024D01*
X24157637Y-11917024D02*
X24167161Y-11936072D01*
X24167161Y-11936072D02*
X24167161Y-12040834D01*
X24167161Y-11936072D02*
X24176684Y-11917024D01*
X24176684Y-11917024D02*
X24195732Y-11907500D01*
X24195732Y-11907500D02*
X24224303Y-11907500D01*
X24224303Y-11907500D02*
X24243351Y-11917024D01*
X24243351Y-11917024D02*
X24252875Y-11936072D01*
X24252875Y-11936072D02*
X24252875Y-12040834D01*
X24643351Y-11831310D02*
X24471923Y-12088453D01*
X24900494Y-11840834D02*
X24919542Y-11840834D01*
X24919542Y-11840834D02*
X24938589Y-11850358D01*
X24938589Y-11850358D02*
X24948113Y-11859881D01*
X24948113Y-11859881D02*
X24957637Y-11878929D01*
X24957637Y-11878929D02*
X24967161Y-11917024D01*
X24967161Y-11917024D02*
X24967161Y-11964643D01*
X24967161Y-11964643D02*
X24957637Y-12002738D01*
X24957637Y-12002738D02*
X24948113Y-12021786D01*
X24948113Y-12021786D02*
X24938589Y-12031310D01*
X24938589Y-12031310D02*
X24919542Y-12040834D01*
X24919542Y-12040834D02*
X24900494Y-12040834D01*
X24900494Y-12040834D02*
X24881446Y-12031310D01*
X24881446Y-12031310D02*
X24871923Y-12021786D01*
X24871923Y-12021786D02*
X24862399Y-12002738D01*
X24862399Y-12002738D02*
X24852875Y-11964643D01*
X24852875Y-11964643D02*
X24852875Y-11917024D01*
X24852875Y-11917024D02*
X24862399Y-11878929D01*
X24862399Y-11878929D02*
X24871923Y-11859881D01*
X24871923Y-11859881D02*
X24881446Y-11850358D01*
X24881446Y-11850358D02*
X24900494Y-11840834D01*
X25052875Y-12021786D02*
X25062399Y-12031310D01*
X25062399Y-12031310D02*
X25052875Y-12040834D01*
X25052875Y-12040834D02*
X25043351Y-12031310D01*
X25043351Y-12031310D02*
X25052875Y-12021786D01*
X25052875Y-12021786D02*
X25052875Y-12040834D01*
X25252875Y-12040834D02*
X25138589Y-12040834D01*
X25195732Y-12040834D02*
X25195732Y-11840834D01*
X25195732Y-11840834D02*
X25176685Y-11869405D01*
X25176685Y-11869405D02*
X25157637Y-11888453D01*
X25157637Y-11888453D02*
X25138589Y-11897977D01*
X25329066Y-11859881D02*
X25338589Y-11850358D01*
X25338589Y-11850358D02*
X25357637Y-11840834D01*
X25357637Y-11840834D02*
X25405256Y-11840834D01*
X25405256Y-11840834D02*
X25424304Y-11850358D01*
X25424304Y-11850358D02*
X25433827Y-11859881D01*
X25433827Y-11859881D02*
X25443351Y-11878929D01*
X25443351Y-11878929D02*
X25443351Y-11897977D01*
X25443351Y-11897977D02*
X25433827Y-11926548D01*
X25433827Y-11926548D02*
X25319542Y-12040834D01*
X25319542Y-12040834D02*
X25443351Y-12040834D01*
X25614780Y-11840834D02*
X25576685Y-11840834D01*
X25576685Y-11840834D02*
X25557637Y-11850358D01*
X25557637Y-11850358D02*
X25548113Y-11859881D01*
X25548113Y-11859881D02*
X25529066Y-11888453D01*
X25529066Y-11888453D02*
X25519542Y-11926548D01*
X25519542Y-11926548D02*
X25519542Y-12002738D01*
X25519542Y-12002738D02*
X25529066Y-12021786D01*
X25529066Y-12021786D02*
X25538589Y-12031310D01*
X25538589Y-12031310D02*
X25557637Y-12040834D01*
X25557637Y-12040834D02*
X25595732Y-12040834D01*
X25595732Y-12040834D02*
X25614780Y-12031310D01*
X25614780Y-12031310D02*
X25624304Y-12021786D01*
X25624304Y-12021786D02*
X25633827Y-12002738D01*
X25633827Y-12002738D02*
X25633827Y-11955119D01*
X25633827Y-11955119D02*
X25624304Y-11936072D01*
X25624304Y-11936072D02*
X25614780Y-11926548D01*
X25614780Y-11926548D02*
X25595732Y-11917024D01*
X25595732Y-11917024D02*
X25557637Y-11917024D01*
X25557637Y-11917024D02*
X25538589Y-11926548D01*
X25538589Y-11926548D02*
X25529066Y-11936072D01*
X25529066Y-11936072D02*
X25519542Y-11955119D01*
X25757637Y-11840834D02*
X25776685Y-11840834D01*
X25776685Y-11840834D02*
X25795732Y-11850358D01*
X25795732Y-11850358D02*
X25805256Y-11859881D01*
X25805256Y-11859881D02*
X25814780Y-11878929D01*
X25814780Y-11878929D02*
X25824304Y-11917024D01*
X25824304Y-11917024D02*
X25824304Y-11964643D01*
X25824304Y-11964643D02*
X25814780Y-12002738D01*
X25814780Y-12002738D02*
X25805256Y-12021786D01*
X25805256Y-12021786D02*
X25795732Y-12031310D01*
X25795732Y-12031310D02*
X25776685Y-12040834D01*
X25776685Y-12040834D02*
X25757637Y-12040834D01*
X25757637Y-12040834D02*
X25738589Y-12031310D01*
X25738589Y-12031310D02*
X25729066Y-12021786D01*
X25729066Y-12021786D02*
X25719542Y-12002738D01*
X25719542Y-12002738D02*
X25710018Y-11964643D01*
X25710018Y-11964643D02*
X25710018Y-11917024D01*
X25710018Y-11917024D02*
X25719542Y-11878929D01*
X25719542Y-11878929D02*
X25729066Y-11859881D01*
X25729066Y-11859881D02*
X25738589Y-11850358D01*
X25738589Y-11850358D02*
X25757637Y-11840834D01*
X25900494Y-11840834D02*
X25900494Y-11878929D01*
X25976685Y-11840834D02*
X25976685Y-11878929D01*
X26271923Y-12117024D02*
X26262399Y-12107500D01*
X26262399Y-12107500D02*
X26243351Y-12078929D01*
X26243351Y-12078929D02*
X26233828Y-12059881D01*
X26233828Y-12059881D02*
X26224304Y-12031310D01*
X26224304Y-12031310D02*
X26214780Y-11983691D01*
X26214780Y-11983691D02*
X26214780Y-11945596D01*
X26214780Y-11945596D02*
X26224304Y-11897977D01*
X26224304Y-11897977D02*
X26233828Y-11869405D01*
X26233828Y-11869405D02*
X26243351Y-11850358D01*
X26243351Y-11850358D02*
X26262399Y-11821786D01*
X26262399Y-11821786D02*
X26271923Y-11812262D01*
X26433828Y-11907500D02*
X26433828Y-12040834D01*
X26386208Y-11831310D02*
X26338589Y-11974167D01*
X26338589Y-11974167D02*
X26462399Y-11974167D01*
X26690970Y-12040834D02*
X26690970Y-11840834D01*
X26776685Y-12040834D02*
X26776685Y-11936072D01*
X26776685Y-11936072D02*
X26767161Y-11917024D01*
X26767161Y-11917024D02*
X26748113Y-11907500D01*
X26748113Y-11907500D02*
X26719542Y-11907500D01*
X26719542Y-11907500D02*
X26700494Y-11917024D01*
X26700494Y-11917024D02*
X26690970Y-11926548D01*
X26900494Y-12040834D02*
X26881447Y-12031310D01*
X26881447Y-12031310D02*
X26871923Y-12021786D01*
X26871923Y-12021786D02*
X26862399Y-12002738D01*
X26862399Y-12002738D02*
X26862399Y-11945596D01*
X26862399Y-11945596D02*
X26871923Y-11926548D01*
X26871923Y-11926548D02*
X26881447Y-11917024D01*
X26881447Y-11917024D02*
X26900494Y-11907500D01*
X26900494Y-11907500D02*
X26929066Y-11907500D01*
X26929066Y-11907500D02*
X26948113Y-11917024D01*
X26948113Y-11917024D02*
X26957637Y-11926548D01*
X26957637Y-11926548D02*
X26967161Y-11945596D01*
X26967161Y-11945596D02*
X26967161Y-12002738D01*
X26967161Y-12002738D02*
X26957637Y-12021786D01*
X26957637Y-12021786D02*
X26948113Y-12031310D01*
X26948113Y-12031310D02*
X26929066Y-12040834D01*
X26929066Y-12040834D02*
X26900494Y-12040834D01*
X27081447Y-12040834D02*
X27062399Y-12031310D01*
X27062399Y-12031310D02*
X27052875Y-12012262D01*
X27052875Y-12012262D02*
X27052875Y-11840834D01*
X27233828Y-12031310D02*
X27214780Y-12040834D01*
X27214780Y-12040834D02*
X27176685Y-12040834D01*
X27176685Y-12040834D02*
X27157637Y-12031310D01*
X27157637Y-12031310D02*
X27148113Y-12012262D01*
X27148113Y-12012262D02*
X27148113Y-11936072D01*
X27148113Y-11936072D02*
X27157637Y-11917024D01*
X27157637Y-11917024D02*
X27176685Y-11907500D01*
X27176685Y-11907500D02*
X27214780Y-11907500D01*
X27214780Y-11907500D02*
X27233828Y-11917024D01*
X27233828Y-11917024D02*
X27243351Y-11936072D01*
X27243351Y-11936072D02*
X27243351Y-11955119D01*
X27243351Y-11955119D02*
X27148113Y-11974167D01*
X27319542Y-12031310D02*
X27338590Y-12040834D01*
X27338590Y-12040834D02*
X27376685Y-12040834D01*
X27376685Y-12040834D02*
X27395732Y-12031310D01*
X27395732Y-12031310D02*
X27405256Y-12012262D01*
X27405256Y-12012262D02*
X27405256Y-12002738D01*
X27405256Y-12002738D02*
X27395732Y-11983691D01*
X27395732Y-11983691D02*
X27376685Y-11974167D01*
X27376685Y-11974167D02*
X27348113Y-11974167D01*
X27348113Y-11974167D02*
X27329066Y-11964643D01*
X27329066Y-11964643D02*
X27319542Y-11945596D01*
X27319542Y-11945596D02*
X27319542Y-11936072D01*
X27319542Y-11936072D02*
X27329066Y-11917024D01*
X27329066Y-11917024D02*
X27348113Y-11907500D01*
X27348113Y-11907500D02*
X27376685Y-11907500D01*
X27376685Y-11907500D02*
X27395732Y-11917024D01*
X27471923Y-12117024D02*
X27481447Y-12107500D01*
X27481447Y-12107500D02*
X27500494Y-12078929D01*
X27500494Y-12078929D02*
X27510018Y-12059881D01*
X27510018Y-12059881D02*
X27519542Y-12031310D01*
X27519542Y-12031310D02*
X27529066Y-11983691D01*
X27529066Y-11983691D02*
X27529066Y-11945596D01*
X27529066Y-11945596D02*
X27519542Y-11897977D01*
X27519542Y-11897977D02*
X27510018Y-11869405D01*
X27510018Y-11869405D02*
X27500494Y-11850358D01*
X27500494Y-11850358D02*
X27481447Y-11821786D01*
X27481447Y-11821786D02*
X27471923Y-11812262D01*
M02*
